<?xml version="1.0" encoding="utf-8"?>
<!-- Generator: Adobe Illustrator 16.0.3, SVG Export Plug-In . SVG Version: 6.00 Build 0)  -->
<!DOCTYPE svg PUBLIC "-//W3C//DTD SVG 1.1//EN" "http://www.w3.org/Graphics/SVG/1.1/DTD/svg11.dtd">
<svg version="1.1" id="Vrstva_1" xmlns="http://www.w3.org/2000/svg" xmlns:xlink="http://www.w3.org/1999/xlink" x="0px" y="0px"
	 width="50px" height="50px" viewBox="0 0 50 50" enable-background="new 0 0 50 50" xml:space="preserve">
<path fill="#009DFF" d="M15.002,44.459c0,1.682-1.258,3.043-2.809,3.043H6.811c-1.551,0-2.809-1.361-2.809-3.043V15.547
	c0-1.681,1.258-3.043,2.809-3.043h5.383c1.551,0,2.809,1.363,2.809,3.043V44.459z"/>
<path fill="#D9314F" d="M30.5,44.459c0,1.682-1.258,3.043-2.809,3.043h-5.383c-1.551,0-2.809-1.361-2.809-3.043V5.541
	c0-1.681,1.258-3.043,2.809-3.043h5.383c1.551,0,2.809,1.363,2.809,3.043V44.459z"/>
<path fill="#B9FF00" d="M45.996,44.459c0,1.682-1.258,3.043-2.809,3.043h-5.383c-1.551,0-2.809-1.361-2.809-3.043V25.553
	c0-1.68,1.258-3.043,2.809-3.043h5.383c1.551,0,2.809,1.363,2.809,3.043V44.459z"/>
</svg>
