<?xml version="1.0" encoding="utf-8"?>
<!-- Generator: Adobe Illustrator 16.0.3, SVG Export Plug-In . SVG Version: 6.00 Build 0)  -->
<!DOCTYPE svg PUBLIC "-//W3C//DTD SVG 1.1//EN" "http://www.w3.org/Graphics/SVG/1.1/DTD/svg11.dtd">
<svg version="1.1" id="Vrstva_1" xmlns="http://www.w3.org/2000/svg" xmlns:xlink="http://www.w3.org/1999/xlink" x="0px" y="0px"
	 width="50px" height="50px" viewBox="0 0 50 50" enable-background="new 0 0 50 50" xml:space="preserve">
<g>
	<ellipse fill="#CF0D51" cx="24.2" cy="22.3" rx="22.4" ry="22.3"/>
	<linearGradient id="SVGID_1_" gradientUnits="userSpaceOnUse" x1="24.9995" y1="3.0771" x2="24.9995" y2="50.0005">
		<stop  offset="0" style="stop-color:#FFFFFF;stop-opacity:0.2"/>
		<stop  offset="0.1378" style="stop-color:#FFFFFF;stop-opacity:0.1724"/>
		<stop  offset="1" style="stop-color:#FFFFFF;stop-opacity:0"/>
	</linearGradient>
	<ellipse fill="url(#SVGID_1_)" cx="25" cy="26.5" rx="25" ry="23.5"/>
	<path fill="#FFFFFF" d="M25.5,22.3l8.8-5.1c-1.9-3.4-5.5-5.7-9.7-5.7c-6.1,0-11.1,5-11.1,11.1c0,6.1,5,11.1,11.1,11.1
		c4.4,0,8.2-2.5,10-6.2L25.5,22.3z M21.6,19.4c-1.2,0-2.2-1-2.2-2.2s1-2.2,2.2-2.2s2.2,1,2.2,2.2S22.8,19.4,21.6,19.4z"/>
</g>
</svg>
