<?xml version="1.0" encoding="utf-8"?>
<!-- Generator: Adobe Illustrator 16.0.3, SVG Export Plug-In . SVG Version: 6.00 Build 0)  -->
<!DOCTYPE svg PUBLIC "-//W3C//DTD SVG 1.1//EN" "http://www.w3.org/Graphics/SVG/1.1/DTD/svg11.dtd">
<svg version="1.1" id="Vrstva_1" xmlns="http://www.w3.org/2000/svg" xmlns:xlink="http://www.w3.org/1999/xlink" x="0px" y="0px"
	 width="50px" height="50px" viewBox="0 0.093 50 50" enable-background="new 0 0.093 50 50" xml:space="preserve">
<path d="M42.705,7.37C37.842,2.527,31.943,0.093,25,0.093c-6.942,0-12.852,2.433-17.705,7.277C2.433,12.216,0,18.103,0,25.02
	c0,6.928,2.433,12.835,7.295,17.728c4.854,4.894,10.763,7.346,17.705,7.346c6.943,0,12.842-2.452,17.705-7.346
	C47.56,37.855,50,31.948,50,25.02C50,18.103,47.559,12.216,42.705,7.37z M32.773,39.04l-7.686-7.667l-7.861,7.832l-6.387-6.362
	l7.86-7.833l-7.694-7.667l6.387-6.362l7.695,7.666l7.567-7.54l6.377,6.364l-7.567,7.539l7.694,7.667L32.773,39.04z"/>
</svg>
