<?xml version="1.0" encoding="utf-8"?>
<!-- Generator: Adobe Illustrator 16.0.3, SVG Export Plug-In . SVG Version: 6.00 Build 0)  -->
<!DOCTYPE svg PUBLIC "-//W3C//DTD SVG 1.1//EN" "http://www.w3.org/Graphics/SVG/1.1/DTD/svg11.dtd">
<svg version="1.1" id="Vrstva_1" xmlns="http://www.w3.org/2000/svg" xmlns:xlink="http://www.w3.org/1999/xlink" x="0px" y="0px"
	 width="35px" height="50px" viewBox="8.175 8.431 35 50" enable-background="new 8.175 8.431 35 50" xml:space="preserve">
<g>
	<path d="M36.884,23.663c0.73,0.166,1.253,0.283,1.695,0.283h0.12c1.053-0.084,2.023-1.08,2.988-3.01
		c1.011-1.971,1.487-3.979,1.487-6.073c0-1.204-0.322-2.133-0.926-2.815c-0.604-0.599-1.777-1.245-3.55-1.924
		c-0.12-0.077-0.245-0.124-0.354-0.161c0,2.529-0.37,4.9-1.054,7.115c-0.724,2.206-1.74,4.137-3.059,5.745
		C35.324,23.186,36.202,23.469,36.884,23.663z"/>
	<path d="M23.418,45.573c-0.442,1.807-1.171,3.492-2.099,5.064c-0.2,0.354-0.435,0.68-0.678,1.045
		c-1.289,1.81-2.947,3.451-4.965,4.896c0.928,0.611,1.738,1.046,2.46,1.37c0.722,0.315,1.296,0.481,1.739,0.481
		c0.479,0,0.964-0.125,1.444-0.325c1.016-0.48,2.099-1.443,3.189-2.928c1.658-2.17,2.459-4.064,2.459-5.664
		c0-0.603-0.233-1.169-0.721-1.734C25.752,47.213,24.789,46.496,23.418,45.573"/>
	<path d="M11.646,54.168c0.478,0.443,0.884,0.763,1.296,0.966c0.361,0.205,0.678,0.322,1.002,0.322c0.442,0,1.171-0.4,2.136-1.2
		c0.966-0.847,1.931-1.854,2.903-3.143c0.804-1.042,1.496-2.254,2.056-3.613c0.081-0.242,0.206-0.483,0.28-0.721
		c0.361-0.924,0.566-1.532,0.566-1.849c0-0.165-0.206-0.487-0.566-0.97c-0.119-0.159-0.28-0.358-0.435-0.565
		c-0.693-0.796-1.009-1.566-1.009-2.407c0-1.046,0.316-2.498,0.92-4.222c0.163-0.44,0.324-0.925,0.524-1.402
		c0.566-1.45,1.295-3.103,2.173-4.906c1.37-2.779,2.469-4.699,3.308-5.789c0.854-1.124,1.739-1.848,2.63-2.129
		c0.198-0.085,0.567-0.162,1.044-0.202c1.54-0.162,2.705-0.845,3.473-2.005c0.677-1.167,1.288-2.701,1.81-4.548
		c0.523-1.843,0.812-3.412,0.812-4.699c0-1.04-0.16-1.727-0.485-2.085c-0.326-0.367-1.008-0.57-2.099-0.57
		c-1.657,0-3.021,0.125-4.192,0.361c-1.164,0.242-2.021,0.568-2.623,1.013c-0.769,0.517-1.938,1.806-3.552,3.854
		c-0.765,0.958-1.531,2.004-2.297,3.098c-0.893,1.193-1.724,2.489-2.616,3.892c-3.071,4.781-5.605,9.891-7.581,15.277
		c-1.973,5.426-2.947,9.483-2.947,12.218c0,0.517,0.125,1.087,0.361,1.686c0.244,0.563,0.649,1.37,1.252,2.329L11.646,54.168z"/>
</g>
</svg>
