<?xml version="1.0" encoding="utf-8"?>
<!-- Generator: Adobe Illustrator 16.0.3, SVG Export Plug-In . SVG Version: 6.00 Build 0)  -->
<!DOCTYPE svg PUBLIC "-//W3C//DTD SVG 1.1//EN" "http://www.w3.org/Graphics/SVG/1.1/DTD/svg11.dtd">
<svg version="1.1" id="Vrstva_1" xmlns="http://www.w3.org/2000/svg" xmlns:xlink="http://www.w3.org/1999/xlink" x="0px" y="0px"
	 width="50px" height="50px" viewBox="0 0.089 50 50" enable-background="new 0 0.089 50 50" xml:space="preserve">
<path d="M42.707,7.297C37.844,2.434,31.938,0,24.999,0C18.057,0,12.151,2.434,7.293,7.297C2.432,12.16,0,18.069,0,25.014
	c0,6.954,2.432,12.879,7.293,17.799c4.858,4.906,10.764,7.363,17.706,7.363c6.94,0,12.846-2.457,17.708-7.363
	C47.559,37.893,50,31.968,50,25.014C50,18.07,47.559,12.16,42.707,7.297z M26.878,35.835l-6.385,6.385l-6.384-6.385l-7.695-7.693
	l6.386-6.384l7.693,7.695L38.76,11.186l6.384,6.383L26.878,35.835z"/>
</svg>
