<?xml version="1.0" encoding="utf-8"?>
<!-- Generator: Adobe Illustrator 16.0.3, SVG Export Plug-In . SVG Version: 6.00 Build 0)  -->
<!DOCTYPE svg PUBLIC "-//W3C//DTD SVG 1.1//EN" "http://www.w3.org/Graphics/SVG/1.1/DTD/svg11.dtd">
<svg version="1.1" id="Vrstva_1" xmlns="http://www.w3.org/2000/svg" xmlns:xlink="http://www.w3.org/1999/xlink" x="0px" y="0px"
	 width="50px" height="50px" viewBox="0 0.088 50 50" enable-background="new 0 0.088 50 50" xml:space="preserve">
<path d="M42.707,7.298c-4.863-4.863-10.769-7.297-17.71-7.297c-6.94,0-12.847,2.435-17.706,7.297C2.431,12.161,0,18.07,0,25.013
	c0,6.954,2.432,12.877,7.291,17.799c4.859,4.906,10.765,7.363,17.706,7.363c6.942,0,12.847-2.457,17.71-7.363
	C47.559,37.891,50,31.967,50,25.013C50,18.071,47.559,12.162,42.707,7.298z M29.515,42.518h-9.029l0.001-6.717h9.028V42.518
	L29.515,42.518z M20.485,31.256L20.484,7.66l9.028-0.001l0.001,23.597H20.485z"/>
</svg>
