<svg id="Group_4" data-name="Group 4" xmlns="http://www.w3.org/2000/svg" xmlns:xlink="http://www.w3.org/1999/xlink" width="64" height="64" viewBox="0 0 64 64">
  <defs>
    <clipPath id="clip-path">
      <path id="Path_3" data-name="Path 3" d="M1035.618,1628.237v28.717a17.429,17.429,0,0,1-17.429,17.429H989.472a17.429,17.429,0,0,1-17.429-17.429v-28.717a17.429,17.429,0,0,1,17.429-17.429h28.718A17.429,17.429,0,0,1,1035.618,1628.237Z" transform="translate(-972.043 -1610.808)" fill="none"/>
    </clipPath>
  </defs>
  <g id="Layer_2" data-name="Layer 2" transform="translate(0 0)">
    <path id="Path_1" data-name="Path 1" d="M1035.618,1628.237v28.717a17.429,17.429,0,0,1-17.429,17.429H989.472a17.429,17.429,0,0,1-17.429-17.429v-28.717a17.429,17.429,0,0,1,17.429-17.429h28.718A17.429,17.429,0,0,1,1035.618,1628.237Z" transform="translate(-972.043 -1610.808)" fill="#ff0d58"/>
  </g>
  <g id="Layer_3" data-name="Layer 3">
    <g id="Group_2" data-name="Group 2" transform="translate(0 0)">
      <g id="Group_1" data-name="Group 1" clip-path="url(#clip-path)">
        <path id="Path_2" data-name="Path 2" d="M1068.042,1809.487l18.819,18.819H1119.7v-29.883l-11.92-11.87-39.734,22.934" transform="translate(-1056.122 -1764.731)" fill="#e00051"/>
      </g>
    </g>
    <rect id="Rectangle_1" data-name="Rectangle 1" width="64" height="64" rx="32" fill="none"/>
  </g>
  <g id="Layer_5" data-name="Layer 5">
    <rect id="Rectangle_2" data-name="Rectangle 2" width="64" height="64" fill="none"/>
  </g>
  <g id="Layer_1" data-name="Layer 1" transform="translate(0 12.877)">
    <path id="Path_4" data-name="Path 4" d="M1100.838,1726.808c-9.5,0-17.7,4.826-17.785,4.875v12.783s0,5.76,0,5.76h0v7.022c.082.048,8.236,4.828,17.65,4.874l.136.631,17.785-5.505v-7.021h0v-18.544C1118.543,1731.635,1110.31,1726.808,1100.838,1726.808Z" transform="translate(-1069.051 -1725.547)" fill="#b6fff6"/>
    <path id="Path_5" data-name="Path 5" d="M1228.852,1731.683v7.022l-20.809-2.438,2.522-9.459C1220.3,1726.809,1228.767,1731.636,1228.852,1731.683Z" transform="translate(-1178.958 -1725.547)" fill="#97f4ec"/>
    <path id="Path_6" data-name="Path 6" d="M1228.851,1912.489v7.021l-18.285,5.505-2.522-11.351S1228.723,1912.525,1228.851,1912.489Z" transform="translate(-1178.958 -1887.809)" fill="#b6fff6"/>
    <path id="Path_7" data-name="Path 7" d="M1208.043,1856.809l2.522,9.459a74.237,74.237,0,0,0,18.285-2.437v-5.761C1228.767,1858.07,1208.043,1856.809,1208.043,1856.809Z" transform="translate(-1178.958 -1839.152)" fill="#97f4ec"/>
    <path id="Path_8" data-name="Path 8" d="M1228.852,1804.247v5.76h-20.809l2.522-8.2A74.289,74.289,0,0,1,1228.852,1804.247Z" transform="translate(-1178.958 -1791.088)" fill="#b6fff6"/>
    <path id="Path_9" data-name="Path 9" d="M1101.34,1914.917v9.459c-9.738,0-18.2-4.827-18.287-4.875v-7.022Z" transform="translate(-1069.355 -1887.801)" fill="#dafffb"/>
    <path id="Path_10" data-name="Path 10" d="M1101.348,1726.809v9.459l-18.285,2.437v-7.021A41.16,41.16,0,0,1,1101.348,1726.809Z" transform="translate(-1069.363 -1725.547)" fill="#b6fff6"/>
    <path id="Path_11" data-name="Path 11" d="M1101.348,1801.809v8.2l-9.143,2.522-9.143-2.522v-5.761A74.234,74.234,0,0,1,1101.348,1801.809Z" transform="translate(-1069.363 -1791.088)" fill="#dafffb"/>
    <path id="Path_12" data-name="Path 12" d="M1083.054,1866.809s0,5.76,0,5.76a74.311,74.311,0,0,0,18.287,2.438v-8.2Z" transform="translate(-1069.355 -1847.891)" fill="#b6fff6"/>
    <path id="Path_13" data-name="Path 13" d="M1023.758,1745.841l-.06.03V1725.6l.06.029c2.463,1.223,7.148,3.5,11.861,3.833v-2.9c-4.158-.3-8.318-2.4-10.607-3.538-.532-.264-.957-.474-1.313-.631v-.007l-.618-.365a38.131,38.131,0,0,0-38.5,0l-.619.365v.007c-.357.156-.781.367-1.313.631-2.289,1.136-6.449,3.25-10.607,3.545v2.894c4.712-.335,9.4-2.61,11.86-3.833l.06-.029v20.268l-.06-.03c-2.463-1.222-7.148-3.5-11.86-3.832v2.894c4.158.3,8.318,2.409,10.606,3.545.576.286,1.027.509,1.4.669l.531.313a38.128,38.128,0,0,0,38.5,0l.531-.313c.374-.16.825-.383,1.4-.669,2.288-1.136,6.449-3.25,10.607-3.545v-2.894C1030.906,1742.344,1026.221,1744.619,1023.758,1745.841Zm-2.544,1.745a35.57,35.57,0,0,1-34.768,0v-23.717a35.569,35.569,0,0,1,34.768,0Z" transform="translate(-972.043 -1716.808)" fill="#fff"/>
  </g>
</svg>
