<?xml version="1.0" encoding="UTF-8" standalone="no"?>
<svg
   xmlns:dc="http://purl.org/dc/elements/1.1/"
   xmlns:cc="http://creativecommons.org/ns#"
   xmlns:rdf="http://www.w3.org/1999/02/22-rdf-syntax-ns#"
   xmlns:svg="http://www.w3.org/2000/svg"
   xmlns="http://www.w3.org/2000/svg"
   version="1.1"
   id="svg2"
   xml:space="preserve"
   width="204.21399"
   height="60.233597"
   viewBox="0 0 204.21399 60.233596"><metadata
     id="metadata8"><rdf:RDF><cc:Work
         rdf:about=""><dc:format>image/svg+xml</dc:format><dc:type
           rdf:resource="http://purl.org/dc/dcmitype/StillImage" /><dc:title></dc:title></cc:Work></rdf:RDF></metadata><defs
     id="defs6"><clipPath
       clipPathUnits="userSpaceOnUse"
       id="clipPath18"><path
         d="M 0,64.819 H 172.804 V 0 H 0 Z"
         id="path16" /></clipPath></defs><g
     id="g10"
     transform="matrix(1.3333333,0,0,-1.3333333,-13.080533,73.344265)"><g
       id="g12"><g
         id="g14"
         clip-path="url(#clipPath18)"><g
           id="g20"
           transform="translate(39.7662,53.7782)"><path
             d="m 0,0 c -2.309,0.797 -4.788,1.23 -7.368,1.23 -2.586,0 -5.07,-0.436 -7.384,-1.236 l 7.384,-5.332 z"
             style="fill:#12608a;fill-opacity:1;fill-rule:nonzero;stroke:none"
             id="path22" /></g><g
           id="g24"
           transform="translate(54.9807,32.0001)"><path
             d="m 0,0 c 0.003,0.14 0.005,0.28 0.005,0.421 0,5.159 -1.731,9.914 -4.642,13.717 L -7.455,5.449 Z"
             style="fill:#a63439;fill-opacity:1;fill-rule:nonzero;stroke:none"
             id="path26" /></g><g
           id="g28"
           transform="translate(13.7708,19.6438)"><path
             d="M 0,0 C 2.885,-4.199 7.153,-7.372 12.147,-8.866 L 9.278,0.022 Z"
             style="fill:#12608a;fill-opacity:1;fill-rule:nonzero;stroke:none"
             id="path30" /></g><g
           id="g32"
           transform="translate(14.4364,46.1158)"><path
             d="m 0,0 c -2.901,-3.799 -4.626,-8.546 -4.626,-13.695 0,-0.135 0.003,-0.269 0.005,-0.403 l 7.455,5.432 z"
             style="fill:#a63439;fill-opacity:1;fill-rule:nonzero;stroke:none"
             id="path34" /></g><g
           id="g36"
           transform="translate(51.0258,19.6437)"><path
             d="m 0,0 -9.278,0.022 -2.896,-8.896 C -7.169,-7.384 -2.891,-4.206 0,0"
             style="fill:#12608a;fill-opacity:1;fill-rule:nonzero;stroke:none"
             id="path38" /></g><g
           id="g40"
           transform="translate(47.5259,37.4495)"><path
             d="m 0,0 2.817,8.689 c -2.672,3.49 -6.338,6.178 -10.577,7.64 l -7.368,-5.338 z"
             style="fill:#54c7e8;fill-opacity:1;fill-rule:nonzero;stroke:none"
             id="path42" /></g><g
           id="g44"
           transform="translate(23.049,19.666)"><path
             d="m 0,0 2.869,-8.888 c 2.053,-0.614 4.228,-0.945 6.48,-0.945 2.243,0 4.408,0.328 6.453,0.937 L 18.699,0 Z"
             style="fill:#54c7e8;fill-opacity:1;fill-rule:nonzero;stroke:none"
             id="path46" /></g><g
           id="g48"
           transform="translate(41.7477,19.666)"><path
             d="m 0,0 9.278,-0.022 c 2.424,3.526 3.871,7.774 3.955,12.356 l -7.455,5.45 z"
             style="fill:#f05b5b;fill-opacity:1;fill-rule:nonzero;stroke:none"
             id="path50" /></g><g
           id="g52"
           transform="translate(17.2708,37.4495)"><path
             d="m 0,0 -7.455,-5.432 c 0.08,-4.588 1.529,-8.843 3.955,-12.374 l 9.278,0.022 z"
             style="fill:#f05b5b;fill-opacity:1;fill-rule:nonzero;stroke:none"
             id="path54" /></g><g
           id="g56"
           transform="translate(32.3984,48.4403)"><path
             d="m 0,0 -7.384,5.332 c -4.241,-1.466 -7.908,-4.16 -10.578,-7.657 l 2.834,-8.666 z"
             style="fill:#54c7e8;fill-opacity:1;fill-rule:nonzero;stroke:none"
             id="path58" /></g><g
           id="g60"
           transform="translate(81.6366,24.7574)"><path
             d="m 0,0 h -0.346 l -9.485,20.426 h -7.014 v -25.54 h 4.544 v 20.426 h 0.346 L -2.47,-5.114 h 7.064 v 25.54 H 0 Z"
             style="fill:#686969;fill-opacity:1;fill-rule:nonzero;stroke:none"
             id="path62" /></g><g
           id="g64"
           transform="translate(97.05,30.0175)"><path
             d="M 0,0 3.607,11.905 H 4.223 L 7.829,0 Z m 0.198,15.166 -7.854,-25.54 h 4.593 l 2.125,6.867 h 9.706 l 2.124,-6.867 h 4.643 l -7.903,25.54 z"
             style="fill:#686969;fill-opacity:1;fill-rule:nonzero;stroke:none"
             id="path66" /></g><g
           id="g68"
           transform="translate(126.5143,32.7343)"><path
             d="M 0,0 7.236,12.449 H 2 L -5.187,0.131 2.099,-13.091 h 5.285 z"
             style="fill:#686969;fill-opacity:1;fill-rule:nonzero;stroke:none"
             id="path70" /></g><g
           id="g72"
           transform="translate(119.4035,34.7598)"><path
             d="M 0,0 V 10.423 H -4.594 V -15.116 H 0 v 11.213 z"
             style="fill:#686969;fill-opacity:1;fill-rule:nonzero;stroke:none"
             id="path74" /></g><path
           d="m 137.629,19.644 h 4.594 v 25.539 h -4.594 z"
           style="fill:#686969;fill-opacity:1;fill-rule:nonzero;stroke:none"
           id="path76" /><g
           id="g78"
           transform="translate(145.1379,45.183)"><path
             d="m 0,0 v -3.705 h 6.619 v -21.834 h 4.594 v 21.834 h 6.62 V 0 Z"
             style="fill:#686969;fill-opacity:1;fill-rule:nonzero;stroke:none"
             id="path80" /></g></g></g></g></svg>
