<svg id="logo-mzcr" xmlns="http://www.w3.org/2000/svg" width="172.999" height="75.63" viewBox="0 0 172.999 75.63">
  <path id="Path_40" data-name="Path 40" d="M302.062,69.566H301.7V73.6h9.42c.951-.815,1.947-1.766,2.944-2.763,5.072-5.072-7.2-1.766-12-1.268" transform="translate(-165.067 -37.231)" fill="#d71440"/>
  <path id="Path_41" data-name="Path 41" d="M301.7,35.7V46.387c1.766-1.449,4.755-3.08,10.326-7.246,6.386-4.755,1.042-3.442-10.326-3.442" transform="translate(-165.067 -19.441)" fill="#d71440"/>
  <path id="Path_42" data-name="Path 42" d="M309.127,0H301.7V6.386c2.9-2.264,5.661-4.166,5.661-4.166A19,19,0,0,1,309.127,0" transform="translate(-165.067)" fill="#d71440"/>
  <path id="Path_43" data-name="Path 43" d="M340.31,0H321.2c0,2.989-5.8,4.891-6.884,5.253-2.853,1.766-6.612,3.94-8.016,5.389-2.627,2.627,5.525.815,15.76.815,2.853,0,4.438,2.536,2.989,4.3-3.17,3.849-6.974,6.521-11.141,9.239-5.706,3.759,8.831-2.581,8.831,4.891,0,2.581-1.9,4.755-4.438,6.476h22.01V0" transform="translate(-167.312)" fill="#d71440"/>
  <path id="Path_44" data-name="Path 44" d="M137.421,18.251V0h-7.427c-2.9,26.539-20.968,19.972-28.894,15.67v20.7h12.273c5.661-21.783,16.666-21.421,24.048-18.115" transform="translate(-55.314)" fill="#c9da36"/>
  <path id="Path_45" data-name="Path 45" d="M128.173,0H101V14.4c15.9,3.714,22.961-4.483,27.173-14.4M105.71,6.521a5.095,5.095,0,1,1,5.072,5.072A5.1,5.1,0,0,1,105.71,6.521Z" transform="translate(-55.259)" fill="#c9da36"/>
  <path id="Path_46" data-name="Path 46" d="M28,19.972A15.675,15.675,0,0,1,12.33,4.3,16.723,16.723,0,0,1,12.918,0H.6V15.9L9.069,7.065a22.855,22.855,0,0,0,2.9,8.106L.6,16.53V36.321H36.966V17.164A15.612,15.612,0,0,1,28,19.972M12.012,26.72l1.4-9.51a23.036,23.036,0,0,0,7.02,4.891ZM28,34.373,23.7,22.6a22.358,22.358,0,0,0,4.3.408,22.707,22.707,0,0,0,4.3-.408Z" transform="translate(-0.328)" fill="#ffc121"/>
  <path id="Path_47" data-name="Path 47" d="M203.483,26.754S219.832,38.937,237,18.784c0,0-13.994-17.436-35.6,1.9V42.7h36.366V25.939c-7.337,7.744-20.2,16.077-34.283.815M219.742,15.7a5.095,5.095,0,0,1,0,10.19,5.095,5.095,0,1,1,0-10.19Z" transform="translate(-110.191 -6.329)" fill="#2e5980"/>
  <path id="Path_48" data-name="Path 48" d="M215.384,0H201.3V10.054C204.47,5.8,209.089,1.449,215.384,0" transform="translate(-110.136)" fill="#2e5980"/>
  <path id="Path_49" data-name="Path 49" d="M7.518,122.106H6.386v-6.295H6.34l-2.491,3.125H3.668l-2.491-3.125h0v6.295H0V114H1.087l2.672,3.306L6.476,114H7.518v8.106" transform="translate(0 -62.372)" fill="#2e5980"/>
  <rect id="Rectangle_12" data-name="Rectangle 12" width="1.177" height="8.106" transform="translate(9.284 51.628)" fill="#2e5980"/>
  <path id="Path_50" data-name="Path 50" d="M34.518,122.106h-1l-5.435-6.25v6.25H27V114h.906l5.48,6.25V114h1.132v8.106" transform="translate(-14.772 -62.372)" fill="#2e5980"/>
  <rect id="Rectangle_13" data-name="Rectangle 13" width="1.177" height="8.106" transform="translate(21.512 51.628)" fill="#2e5980"/>
  <path id="Path_51" data-name="Path 51" d="M57.357,115.6a2.833,2.833,0,0,0-1.9-.86c-.77,0-1.268.408-1.268.951,0,1.54,3.487,1.54,3.487,4.121a2.178,2.178,0,0,1-2.264,2.219,3.436,3.436,0,0,1-2.264-.77v-1.449a2.723,2.723,0,0,0,2.129,1.177,1.166,1.166,0,0,0,1.313-1.042c0-1.676-3.487-1.857-3.487-4.076a2.2,2.2,0,0,1,2.446-2.174,3.084,3.084,0,0,1,1.812.589V115.6" transform="translate(-29.052 -62.208)" fill="#2e5980"/>
  <path id="Path_52" data-name="Path 52" d="M71.248,115.042H68.44v7.065H67.308v-7.065H64.5V114h6.748v1.042" transform="translate(-35.289 -62.372)" fill="#2e5980"/>
  <path id="Path_53" data-name="Path 53" d="M86.419,115.042H82.977v2.446h3.306v1.042H82.977v2.491H86.51v1.087H81.8V114h4.619v1.042" transform="translate(-44.755 -62.372)" fill="#2e5980"/>
  <path id="Path_54" data-name="Path 54" d="M97.038,114c1.63,0,2.672.86,2.672,2.264a2.055,2.055,0,0,1-1.359,1.993,7.122,7.122,0,0,1,1.812,2.219c.362.543.543.815,1.087,1.585h-1.4l-1.087-1.676c-1.087-1.676-1.54-1.857-2.129-1.857h-.5v3.532H95V114h2.038m-.906,3.532h.725c1.268,0,1.585-.634,1.585-1.313,0-.77-.453-1.223-1.585-1.223h-.725Z" transform="translate(-51.977 -62.372)" fill="#2e5980"/>
  <path id="Path_55" data-name="Path 55" d="M114.057,115.6a2.833,2.833,0,0,0-1.9-.86c-.725,0-1.268.408-1.268.951,0,1.54,3.487,1.54,3.487,4.121a2.178,2.178,0,0,1-2.264,2.219,3.436,3.436,0,0,1-2.264-.77v-1.449a2.723,2.723,0,0,0,2.129,1.177,1.166,1.166,0,0,0,1.313-1.042c0-1.676-3.487-1.857-3.487-4.076a2.2,2.2,0,0,1,2.446-2.174,3.185,3.185,0,0,1,1.812.589V115.6" transform="translate(-60.074 -62.208)" fill="#2e5980"/>
  <path id="Path_56" data-name="Path 56" d="M127.948,115.042H125.14v7.065h-1.132v-7.065H121.2V114h6.748v1.042" transform="translate(-66.311 -62.372)" fill="#2e5980"/>
  <path id="Path_57" data-name="Path 57" d="M140.314,122.152h-.226L136.6,114h1.132l2.446,5.661,2.4-5.661h1.177l-3.442,8.152" transform="translate(-74.737 -62.372)" fill="#2e5980"/>
  <path id="Path_58" data-name="Path 58" d="M156.9,113.8a4.169,4.169,0,1,1-4.3,4.166,4.118,4.118,0,0,1,4.3-4.166m0,7.246a3.081,3.081,0,1,0,0-6.159,3.08,3.08,0,1,0,0,6.159Z" transform="translate(-83.49 -62.263)" fill="#2e5980"/>
  <path id="Path_59" data-name="Path 59" d="M180.917,115.042V114h6.974l-5.163,7.02h5.163v1.087H180.6l5.118-7.065h-4.8" transform="translate(-98.81 -62.372)" fill="#2e5980"/>
  <path id="Path_60" data-name="Path 60" d="M199.045,114h3.125a3.991,3.991,0,0,1,4.3,4.031,4.078,4.078,0,0,1-4.3,4.031H199l.045-8.061m1.132,7.02h1.857a2.945,2.945,0,0,0,3.215-2.989c0-1.63-1.042-2.989-3.306-2.989h-1.812v5.978Z" transform="translate(-108.878 -62.372)" fill="#2e5980"/>
  <path id="Path_61" data-name="Path 61" d="M220.683,114c1.63,0,2.672.86,2.672,2.264A2.055,2.055,0,0,1,222,118.257a7.122,7.122,0,0,1,1.812,2.219c.362.543.543.815,1.087,1.585h-1.4l-1.087-1.676c-1.042-1.676-1.54-1.857-2.129-1.857h-.5v3.532H218.6V114h2.083m-.86,3.532h.725c1.223,0,1.585-.634,1.585-1.313,0-.77-.453-1.223-1.585-1.223h-.725Z" transform="translate(-119.601 -62.372)" fill="#2e5980"/>
  <path id="Path_62" data-name="Path 62" d="M240.48,122.106H239.3l-1.087-2.4h-3.442l-1,2.4H232.6L236.087,114h.815l3.578,8.106m-5.253-3.442h2.491l-1.313-2.944Z" transform="translate(-127.261 -62.372)" fill="#2e5980"/>
  <path id="Path_63" data-name="Path 63" d="M251.614,122.152h-.226L247.9,114h1.132l2.446,5.661,2.4-5.661h1.177l-3.442,8.152" transform="translate(-135.632 -62.372)" fill="#2e5980"/>
  <path id="Path_64" data-name="Path 64" d="M268.148,113.8a4.169,4.169,0,1,1-4.348,4.166,4.118,4.118,0,0,1,4.348-4.166m0,7.246a3.081,3.081,0,1,0,0-6.159,3.08,3.08,0,1,0,0,6.159Z" transform="translate(-144.331 -62.263)" fill="#2e5980"/>
  <path id="Path_65" data-name="Path 65" d="M289.648,115.042h-2.763v7.065h-1.177v-7.065H282.9V114h6.748v1.042" transform="translate(-154.781 -62.372)" fill="#2e5980"/>
  <path id="Path_66" data-name="Path 66" d="M307.772,122.106h-1l-5.389-6.25v6.25H300.3V114h.906l5.48,6.25V114h1.087v8.106" transform="translate(-164.301 -62.372)" fill="#2e5980"/>
  <rect id="Rectangle_14" data-name="Rectangle 14" width="1.177" height="8.106" transform="translate(145.238 51.628)" fill="#2e5980"/>
  <path id="Path_67" data-name="Path 67" d="M333.8,115.7a5.318,5.318,0,0,0-2.808-.86,3.06,3.06,0,0,0-3.215,3.08,3.023,3.023,0,0,0,3.261,3.08,5.273,5.273,0,0,0,2.808-.906v1.268a6.08,6.08,0,0,1-2.9.725,4.129,4.129,0,0,1-4.348-4.031,4.188,4.188,0,0,1,4.438-4.257,6.31,6.31,0,0,1,2.763.679V115.7" transform="translate(-178.69 -62.263)" fill="#2e5980"/>
  <path id="Path_68" data-name="Path 68" d="M351.048,115.042H348.24v7.065h-1.132v-7.065H344.3V114h6.748v1.042" transform="translate(-188.374 -62.372)" fill="#2e5980"/>
  <path id="Path_69" data-name="Path 69" d="M363.359,122.152h-.226L359.6,114h1.177l2.445,5.661,2.4-5.661h1.132l-3.4,8.152" transform="translate(-196.746 -62.372)" fill="#2e5980"/>
  <path id="Path_70" data-name="Path 70" d="M379.319,110.1l-1.54,1.359H377.1l.86-1.359h1.359m-.906,9.873h-1.177v-8.106h1.177Z" transform="translate(-206.32 -60.238)" fill="#2e5980"/>
  <path id="Path_71" data-name="Path 71" d="M94.546,148.523a5.318,5.318,0,0,0-2.808-.86,3.06,3.06,0,0,0-3.215,3.08,3.023,3.023,0,0,0,3.261,3.08,5.273,5.273,0,0,0,2.808-.906v1.268a6.131,6.131,0,0,1-2.944.725,4.129,4.129,0,0,1-4.348-4.031,4.214,4.214,0,0,1,4.438-4.257,6.455,6.455,0,0,1,2.763.679l.045,1.223M91.059,146.3l-1.4-1.4h.679l1.359.725,1.359-.725h.725l-1.4,1.4Z" transform="translate(-47.764 -79.278)" fill="#2e5980"/>
  <path id="Path_72" data-name="Path 72" d="M111.174,149.942h-3.442v2.446h3.351v1.042h-3.351v2.491h3.578v1.087H106.6V148.9h4.574v1.042" transform="translate(-58.323 -81.467)" fill="#2e5980"/>
  <path id="Path_73" data-name="Path 73" d="M123.057,150.447a2.833,2.833,0,0,0-1.9-.86c-.725,0-1.268.362-1.268.951,0,1.54,3.487,1.54,3.487,4.121a2.142,2.142,0,0,1-2.264,2.174,3.657,3.657,0,0,1-2.264-.725v-1.495a2.723,2.723,0,0,0,2.129,1.177,1.166,1.166,0,0,0,1.313-1.042c0-1.676-3.487-1.857-3.487-4.076a2.2,2.2,0,0,1,2.446-2.174,3.083,3.083,0,0,1,1.812.589v1.359" transform="translate(-64.998 -81.248)" fill="#2e5980"/>
  <path id="Path_74" data-name="Path 74" d="M138.538,157.007h-1.585l-4.121-4.031v4.031H131.7V148.9h1.132v3.714l3.4-3.714h1.449l-3.487,3.849,4.348,4.257" transform="translate(-72.056 -81.467)" fill="#2e5980"/>
  <path id="Path_75" data-name="Path 75" d="M153.419,147.808h-3.442v2.446h3.306v1.042h-3.306v2.491h3.532v1.042H148.8v-8.106h4.619v1.087M152.831,145l-1.54,1.4h-.679l.906-1.4Z" transform="translate(-81.412 -79.333)" fill="#2e5980"/>
  <path id="Path_76" data-name="Path 76" d="M171.283,148.845c1.63,0,2.672.86,2.672,2.264A2.055,2.055,0,0,1,172.6,153.1a6.849,6.849,0,0,1,1.812,2.264c.362.543.543.815,1.087,1.585h-1.4L173,155.276c-1.087-1.676-1.54-1.857-2.129-1.857h-.5v3.487H169.2V148.8h2.083m-.906,3.578h.725c1.223,0,1.585-.634,1.585-1.313,0-.77-.453-1.223-1.585-1.223h-.725Z" transform="translate(-92.573 -81.412)" fill="#2e5980"/>
  <path id="Path_77" data-name="Path 77" d="M189.574,149.942h-3.4v2.446h3.306v1.042h-3.306v2.491h3.532v1.087H185V148.9h4.574v1.042" transform="translate(-101.218 -81.467)" fill="#2e5980"/>
  <path id="Path_78" data-name="Path 78" d="M200.491,148.845a2.269,2.269,0,0,1,2.581,2.31c0,1.268-.86,2.264-2.717,2.264h-1.223v3.487H198V148.8h2.491m-1.359,3.578h1.313a1.23,1.23,0,0,0,1.4-1.268c0-.589-.317-1.223-1.4-1.223h-1.359l.045,2.491Z" transform="translate(-108.33 -81.412)" fill="#2e5980"/>
  <path id="Path_79" data-name="Path 79" d="M218.129,153.791c0,1.993-1.177,3.306-3.578,3.306a3.059,3.059,0,0,1-3.351-3.17V148.9h1.177v4.8a2.063,2.063,0,0,0,.5,1.676,2.356,2.356,0,0,0,1.721.679,2.642,2.642,0,0,0,1.9-.634,2.36,2.36,0,0,0,.5-1.766v-4.71h1.177l-.045,4.846" transform="translate(-115.552 -81.467)" fill="#2e5980"/>
  <path id="Path_80" data-name="Path 80" d="M230,148.9h2.355c1.721,0,2.491,1.042,2.491,2.083a1.7,1.7,0,0,1-1.223,1.721h0a2.145,2.145,0,0,1,1.947,2.129c0,1-.725,2.174-2.763,2.174H230V148.9m1.178,3.487h.77c1.132,0,1.721-.408,1.721-1.313,0-.589-.362-1.132-1.4-1.132h-1.042l-.045,2.446Zm0,3.532h1.449c1.359,0,1.721-.679,1.721-1.268,0-.725-.589-1.268-1.811-1.268h-1.4v2.536Z" transform="translate(-125.838 -81.467)" fill="#2e5980"/>
  <path id="Path_81" data-name="Path 81" d="M245.877,155.92H249.5v1.087h-4.8V148.9h1.177v7.02" transform="translate(-133.881 -81.467)" fill="#2e5980"/>
  <rect id="Rectangle_15" data-name="Rectangle 15" width="1.177" height="8.106" transform="translate(116.661 67.433)" fill="#2e5980"/>
  <path id="Path_82" data-name="Path 82" d="M270.984,157.007h-1.63l-4.076-4.031v4.031H264.1V148.9h1.177v3.714l3.4-3.714h1.449l-3.532,3.849,4.393,4.257" transform="translate(-144.495 -81.467)" fill="#2e5980"/>
  <path id="Path_83" data-name="Path 83" d="M285.052,148.9h1.4l-2.989,3.8v4.3h-1.177v-4.3l-2.989-3.8h1.4l2.174,2.808,2.174-2.808" transform="translate(-152.811 -81.467)" fill="#2e5980"/>
</svg>
