<svg xmlns="http://www.w3.org/2000/svg" xmlns:xlink="http://www.w3.org/1999/xlink" width="194.136" height="64" viewBox="0 0 194.136 64">
  <defs>
    <clipPath id="clip-path">
      <path id="Path_3" data-name="Path 3" d="M1035.618,1628.237v28.717a17.429,17.429,0,0,1-17.429,17.429H989.472a17.429,17.429,0,0,1-17.429-17.429v-28.717a17.429,17.429,0,0,1,17.429-17.429h28.718A17.429,17.429,0,0,1,1035.618,1628.237Z" transform="translate(-972.043 -1610.808)" fill="none"/>
    </clipPath>
  </defs>
  <g id="Group_450" data-name="Group 450" transform="translate(-364 -46)">
    <g id="Group_3" data-name="Group 3" transform="translate(364 46)">
      <g id="Layer_2" data-name="Layer 2" transform="translate(0 0)">
        <path id="Path_1" data-name="Path 1" d="M1035.618,1628.237v28.717a17.429,17.429,0,0,1-17.429,17.429H989.472a17.429,17.429,0,0,1-17.429-17.429v-28.717a17.429,17.429,0,0,1,17.429-17.429h28.718A17.429,17.429,0,0,1,1035.618,1628.237Z" transform="translate(-972.043 -1610.808)" fill="#ff0d58"/>
      </g>
      <g id="Layer_3" data-name="Layer 3">
        <g id="Group_2" data-name="Group 2" transform="translate(0 0)">
          <g id="Group_1" data-name="Group 1" clip-path="url(#clip-path)">
            <path id="Path_2" data-name="Path 2" d="M1068.042,1809.487l18.819,18.819H1119.7v-29.883l-11.92-11.87-39.734,22.934" transform="translate(-1056.122 -1764.731)" fill="#e00051"/>
          </g>
        </g>
        <rect id="Rectangle_1" data-name="Rectangle 1" width="64" height="64" rx="32" fill="none"/>
      </g>
      <g id="Layer_5" data-name="Layer 5">
        <rect id="Rectangle_2" data-name="Rectangle 2" width="64" height="64" fill="none"/>
      </g>
      <g id="Layer_1" data-name="Layer 1" transform="translate(0 12.877)">
        <path id="Path_4" data-name="Path 4" d="M1100.838,1726.808c-9.5,0-17.7,4.826-17.785,4.875v12.783s0,5.76,0,5.76h0v7.022c.082.048,8.236,4.828,17.65,4.874l.136.631,17.785-5.505v-7.021h0v-18.544C1118.543,1731.635,1110.31,1726.808,1100.838,1726.808Z" transform="translate(-1069.051 -1725.547)" fill="#b6fff6"/>
        <path id="Path_5" data-name="Path 5" d="M1228.852,1731.683v7.022l-20.809-2.438,2.522-9.459C1220.3,1726.809,1228.767,1731.636,1228.852,1731.683Z" transform="translate(-1178.958 -1725.547)" fill="#97f4ec"/>
        <path id="Path_6" data-name="Path 6" d="M1228.851,1912.489v7.021l-18.285,5.505-2.522-11.351S1228.723,1912.525,1228.851,1912.489Z" transform="translate(-1178.958 -1887.809)" fill="#b6fff6"/>
        <path id="Path_7" data-name="Path 7" d="M1208.043,1856.809l2.522,9.459a74.237,74.237,0,0,0,18.285-2.437v-5.761C1228.767,1858.07,1208.043,1856.809,1208.043,1856.809Z" transform="translate(-1178.958 -1839.152)" fill="#97f4ec"/>
        <path id="Path_8" data-name="Path 8" d="M1228.852,1804.247v5.76h-20.809l2.522-8.2A74.289,74.289,0,0,1,1228.852,1804.247Z" transform="translate(-1178.958 -1791.088)" fill="#b6fff6"/>
        <path id="Path_9" data-name="Path 9" d="M1101.34,1914.917v9.459c-9.738,0-18.2-4.827-18.287-4.875v-7.022Z" transform="translate(-1069.355 -1887.801)" fill="#dafffb"/>
        <path id="Path_10" data-name="Path 10" d="M1101.348,1726.809v9.459l-18.285,2.437v-7.021A41.16,41.16,0,0,1,1101.348,1726.809Z" transform="translate(-1069.363 -1725.547)" fill="#b6fff6"/>
        <path id="Path_11" data-name="Path 11" d="M1101.348,1801.809v8.2l-9.143,2.522-9.143-2.522v-5.761A74.234,74.234,0,0,1,1101.348,1801.809Z" transform="translate(-1069.363 -1791.088)" fill="#dafffb"/>
        <path id="Path_12" data-name="Path 12" d="M1083.054,1866.809s0,5.76,0,5.76a74.311,74.311,0,0,0,18.287,2.438v-8.2Z" transform="translate(-1069.355 -1847.891)" fill="#b6fff6"/>
        <path id="Path_13" data-name="Path 13" d="M1023.758,1745.841l-.06.03V1725.6l.06.029c2.463,1.223,7.148,3.5,11.861,3.833v-2.9c-4.158-.3-8.318-2.4-10.607-3.538-.532-.264-.957-.474-1.313-.631v-.007l-.618-.365a38.131,38.131,0,0,0-38.5,0l-.619.365v.007c-.357.156-.781.367-1.313.631-2.289,1.136-6.449,3.25-10.607,3.545v2.894c4.712-.335,9.4-2.61,11.86-3.833l.06-.029v20.268l-.06-.03c-2.463-1.222-7.148-3.5-11.86-3.832v2.894c4.158.3,8.318,2.409,10.606,3.545.576.286,1.027.509,1.4.669l.531.313a38.128,38.128,0,0,0,38.5,0l.531-.313c.374-.16.825-.383,1.4-.669,2.288-1.136,6.449-3.25,10.607-3.545v-2.894C1030.906,1742.344,1026.221,1744.619,1023.758,1745.841Zm-2.544,1.745a35.57,35.57,0,0,1-34.768,0v-23.717a35.569,35.569,0,0,1,34.768,0Z" transform="translate(-972.043 -1716.808)" fill="#fff"/>
      </g>
    </g>
    <path id="Path_16" data-name="Path 16" d="M7.722.286A6.268,6.268,0,0,1,2.613-1.729a8.336,8.336,0,0,1-1.677-5.5,8.858,8.858,0,0,1,.871-4.056A6.161,6.161,0,0,1,4.264-13.91a7.235,7.235,0,0,1,3.666-.91,5.509,5.509,0,0,1,4,1.365A5.336,5.336,0,0,1,13.39-9.568a11.405,11.405,0,0,1-.208,2.548H4.732A6.373,6.373,0,0,0,5.85-3.341,3.432,3.432,0,0,0,8.736-2.028a6.986,6.986,0,0,0,2.093-.338,5.675,5.675,0,0,0,1.7-.806l.65,1.43A6.382,6.382,0,0,1,10.907-.351,8.42,8.42,0,0,1,7.722.286ZM9.75-8.58Q9.8-9.308,9.8-9.7q0-3.458-2.314-3.458a2.265,2.265,0,0,0-1.976,1.014,6.967,6.967,0,0,0-.78,3.562Zm5.564,7.02,2.054-.26V-17.368l-1.95-.364v-1.586h3.77q.494,0,1.092-.026t.91-.052q1.352-.1,2.236-.1a13.735,13.735,0,0,1,4.29.546,4.317,4.317,0,0,1,2.34,1.664,5.307,5.307,0,0,1,.728,2.938,6.147,6.147,0,0,1-.962,3.328A4.9,4.9,0,0,1,27.04-8.918a4.349,4.349,0,0,1,1.846,1.612A23.8,23.8,0,0,1,30.6-4.264q.65,1.274,1,1.833a1.283,1.283,0,0,0,.689.637l.858.26V0H28.73q-.416,0-.871-.845A28.263,28.263,0,0,1,26.676-3.51q-.858-2.132-1.482-3.328A2.987,2.987,0,0,0,23.868-8.32H21.19v6.5l2.392.26V0H15.314Zm8.268-8.346A2.77,2.77,0,0,0,25.9-10.972a5.145,5.145,0,0,0,.832-3.2,4.1,4.1,0,0,0-.819-2.808,3.661,3.661,0,0,0-2.821-.91,9.926,9.926,0,0,0-1.235.065q-.507.065-.663.065v7.8a12.643,12.643,0,0,0,1.508.052ZM34.216-7.2a8.3,8.3,0,0,1,.975-4.16A6.468,6.468,0,0,1,37.8-13.949a7.469,7.469,0,0,1,3.562-.871,6.393,6.393,0,0,1,5.057,2.015A7.97,7.97,0,0,1,48.2-7.332a8.428,8.428,0,0,1-.975,4.2,6.3,6.3,0,0,1-2.6,2.574,7.631,7.631,0,0,1-3.575.845A6.4,6.4,0,0,1,36.01-1.729,7.933,7.933,0,0,1,34.216-7.2Zm7.046,5.8Q44.2-1.4,44.2-7.072a11.322,11.322,0,0,0-.7-4.511A2.368,2.368,0,0,0,41.21-13.13q-3.016,0-3.016,5.668a10.787,10.787,0,0,0,.741,4.511A2.441,2.441,0,0,0,41.262-1.4ZM62.3.26A1.789,1.789,0,0,1,61.048-.1a1.424,1.424,0,0,1-.39-1.092v-.7A6.211,6.211,0,0,1,58.682-.377a5.477,5.477,0,0,1-2.548.663A4.385,4.385,0,0,1,52.572-1a6.687,6.687,0,0,1-1.066-4.251v-7.332l-1.3-.364V-14.43l4.42-.338h.026l.52.364v9.152A5.378,5.378,0,0,0,55.64-2.6a1.886,1.886,0,0,0,1.742.754,4.2,4.2,0,0,0,2.86-1.2v-9.542l-1.742-.39V-14.43l4.706-.338h.052l.624.364V-1.612h1.456L65.312-.13q-.1.026-.962.208A10.036,10.036,0,0,1,62.3.26ZM70.07-2.132a1.953,1.953,0,0,0,.949.585,4.3,4.3,0,0,0,1.5.273,2.82,2.82,0,0,0,1.833-.507,1.654,1.654,0,0,0,.611-1.339A1.632,1.632,0,0,0,74.2-4.511a15.506,15.506,0,0,0-2.548-1.313l-.728-.312a6.855,6.855,0,0,1-2.678-1.82,4.174,4.174,0,0,1-.884-2.756,3.368,3.368,0,0,1,.7-2.093,4.59,4.59,0,0,1,1.976-1.443,7.729,7.729,0,0,1,2.938-.52,12.069,12.069,0,0,1,2.093.156q.871.156,1.833.416a3.775,3.775,0,0,0,.78.208v3.406H75.634l-.6-1.976a1.363,1.363,0,0,0-.7-.468,3.489,3.489,0,0,0-1.248-.208,2.873,2.873,0,0,0-1.7.455,1.464,1.464,0,0,0-.637,1.261,1.718,1.718,0,0,0,.442,1.209,3.336,3.336,0,0,0,.962.741q.52.26,1.924.858A20.173,20.173,0,0,1,76.4-7.566a4.9,4.9,0,0,1,1.534,1.417,3.6,3.6,0,0,1,.611,2.119A3.8,3.8,0,0,1,77.038-.91,6.854,6.854,0,0,1,72.7.286,11.009,11.009,0,0,1,70.317.052q-1.053-.234-2.431-.624l-.572-.182V-4.186h2.158ZM72.748-19.11l3.8-3.51,1.222.988-3.874,5.1H71.63l-3.848-5.1,1.248-.962Zm9.126.1L80-19.344v-1.4l4.784-.572h.052l.7.494v12.35L85.462-7.1l5.3-5.564-1.924-.286V-14.43h6.786v1.482l-2.106.338-3.2,3.068,4.55,7.774,1.43.208V0H89.44V-1.56l1.326-.234L87.8-7.28l-2.34,2.366.052,1.326v1.794l1.638.234V0H80.366V-1.56l1.508-.234ZM96.746-4.056a3.814,3.814,0,0,1,2.379-3.562,13.919,13.919,0,0,1,6.149-1.222v-.6a4.971,4.971,0,0,0-.221-1.664,1.6,1.6,0,0,0-.806-.9,3.844,3.844,0,0,0-1.7-.3,7.481,7.481,0,0,0-2.288.325,16.947,16.947,0,0,0-2.106.845l-.806-1.664a6.882,6.882,0,0,1,1.313-.806,11.821,11.821,0,0,1,2.2-.819,9.841,9.841,0,0,1,2.626-.351,7.662,7.662,0,0,1,3.133.52,3.145,3.145,0,0,1,1.625,1.664,7.874,7.874,0,0,1,.494,3.068V-1.56h1.4V-.1a14.521,14.521,0,0,1-1.482.26,12.812,12.812,0,0,1-1.69.13,1.9,1.9,0,0,1-1.183-.26,1.41,1.41,0,0,1-.3-1.066v-.7a7.025,7.025,0,0,1-1.82,1.4,5.086,5.086,0,0,1-2.522.624,4.792,4.792,0,0,1-2.2-.507,3.928,3.928,0,0,1-1.6-1.482A4.416,4.416,0,0,1,96.746-4.056ZM102.8-1.872a3.032,3.032,0,0,0,1.248-.325,4.869,4.869,0,0,0,1.222-.793V-7.254a6.23,6.23,0,0,0-3.5.793A2.387,2.387,0,0,0,100.62-4.42a2.749,2.749,0,0,0,.585,1.9A2.043,2.043,0,0,0,102.8-1.872Z" transform="translate(448 87)" fill="#222"/>
  </g>
</svg>
