<svg width="24" height="24" viewBox="0 0 24 24" fill="none" xmlns="http://www.w3.org/2000/svg"><path fill-rule="evenodd" clip-rule="evenodd" d="M12 2C12.6497 2 13.1765 2.52672 13.1765 3.17647C13.1765 3.61181 12.94 3.99193 12.5885 4.19539L12.5884 5.5558C13.3413 5.62367 14.057 5.82051 14.7133 6.12406L15.4245 4.89174C15.3412 4.73031 15.2941 4.54712 15.2941 4.35294C15.2941 3.70319 15.8208 3.17647 16.4706 3.17647C17.1203 3.17647 17.6471 3.70319 17.6471 4.35294C17.6471 5.00269 17.1203 5.52941 16.4706 5.52941L16.4162 5.52615L15.7314 6.71304C16.3341 7.13921 16.8608 7.66585 17.287 8.26858L18.4731 7.58308L18.4754 7.53998C18.5295 6.94041 19.0334 6.47059 19.6471 6.47059C20.2968 6.47059 20.8235 6.99731 20.8235 7.64706C20.8235 8.29681 20.2968 8.82353 19.6471 8.82353C19.4108 8.82353 19.1908 8.75388 19.0065 8.63399L17.8759 9.28669C18.1795 9.94296 18.3763 10.6587 18.4442 11.4116L19.8046 11.4115C20.0081 11.06 20.3882 10.8235 20.8235 10.8235C21.4733 10.8235 22 11.3503 22 12C22 12.6497 21.4733 13.1765 20.8235 13.1765C20.3882 13.1765 20.0081 12.94 19.8046 12.5885L18.4442 12.5884C18.3763 13.3413 18.1795 14.057 17.8759 14.7133L19.0065 15.366C19.1908 15.2461 19.4108 15.1765 19.6471 15.1765C20.2968 15.1765 20.8235 15.7032 20.8235 16.3529C20.8235 17.0027 20.2968 17.5294 19.6471 17.5294C19.0334 17.5294 18.5295 17.0596 18.4754 16.46L18.4731 16.4162L17.287 15.7314C16.8608 16.3341 16.3341 16.8608 15.7314 17.287L16.4162 18.4731L16.4706 18.4706C17.0842 18.4706 17.5882 18.9404 17.6423 19.54L17.6471 19.6471C17.6471 20.2968 17.1203 20.8235 16.4706 20.8235C15.8208 20.8235 15.2941 20.2968 15.2941 19.6471C15.2941 19.4529 15.3412 19.2697 15.4245 19.1083L14.7133 17.8759C14.057 18.1795 13.3413 18.3763 12.5884 18.4442L12.5885 19.8046C12.94 20.0081 13.1765 20.3882 13.1765 20.8235C13.1765 21.4733 12.6497 22 12 22C11.3503 22 10.8235 21.4733 10.8235 20.8235C10.8235 20.3882 11.06 20.0081 11.4115 19.8046L11.4116 18.4442C10.6587 18.3763 9.94296 18.1795 9.28669 17.8759L8.57553 19.1083C8.65884 19.2697 8.70588 19.4529 8.70588 19.6471C8.70588 20.2968 8.17916 20.8235 7.52941 20.8235C6.87967 20.8235 6.35294 20.2968 6.35294 19.6471C6.35294 18.9973 6.87967 18.4706 7.52941 18.4706L7.58365 18.4718L8.26858 17.287C7.66585 16.8608 7.13921 16.3341 6.71304 15.7314L5.52771 16.4167C5.49458 17.0368 4.98129 17.5294 4.35294 17.5294C3.70319 17.5294 3.17647 17.0027 3.17647 16.3529C3.17647 15.7032 3.70319 15.1765 4.35294 15.1765C4.58921 15.1765 4.80922 15.2461 4.99354 15.366L6.12406 14.7133C5.82051 14.057 5.62367 13.3413 5.5558 12.5884L4.19539 12.5885C3.99193 12.94 3.61181 13.1765 3.17647 13.1765C2.52672 13.1765 2 12.6497 2 12C2 11.3503 2.52672 10.8235 3.17647 10.8235C3.61181 10.8235 3.99193 11.06 4.19539 11.4115L5.5558 11.4116C5.62367 10.6587 5.82051 9.94296 6.12406 9.28669L4.99354 8.63399C4.80922 8.75388 4.58921 8.82353 4.35294 8.82353C3.70319 8.82353 3.17647 8.29681 3.17647 7.64706C3.17647 6.99731 3.70319 6.47059 4.35294 6.47059C4.98129 6.47059 5.49458 6.96319 5.52771 7.58327L6.71304 8.26858C7.13921 7.66585 7.66585 7.13921 8.26858 6.71304L7.58365 5.52818L7.52941 5.52941C6.87967 5.52941 6.35294 5.00269 6.35294 4.35294C6.35294 3.70319 6.87967 3.17647 7.52941 3.17647C8.17916 3.17647 8.70588 3.70319 8.70588 4.35294C8.70588 4.54712 8.65884 4.73031 8.57553 4.89174L9.28669 6.12406C9.94296 5.82051 10.6587 5.62367 11.4116 5.5558L11.4115 4.19539C11.06 3.99193 10.8235 3.61181 10.8235 3.17647C10.8235 2.52672 11.3503 2 12 2ZM15.0485 8.61539L11.0746 12.5897L8.86255 10.3771L7.53846 11.7012L11.0694 15.2321L11.0708 15.2312L11.0762 15.2358L16.3726 9.93948L15.0485 8.61539Z" fill="white"/></svg>
