<svg version="1" xmlns="http://www.w3.org/2000/svg" width="933.333" height="933.333" viewBox="0 0 700.000000 700.000000"><path d="M171.5 1c-34 3.5-67.9 16.8-95.7 37.8C33.2 70.8 6.1 119.7 1 173.5c-.5 6-1 25.1-1 42.2V247h3.4c9.2 0 32-5.2 50.7-11.5 21-7.1 65-27.3 85.4-39.2 11.5-6.7 38.1-19.7 51.5-25.1 91.6-37.1 194.4-40.3 289-8.9 25 8.3 52 20.3 73 32.4 20 11.5 56.4 28.9 76.6 36.6 21.2 8.1 51.6 15.7 62.5 15.7h2.9v-34.4c0-43.7-1.4-56.4-9.2-80.5-15.4-48.3-50.2-88.9-95.4-111.5C572.5 11.7 558.3 7 535 2.3 527.2.8 512.1.6 353 .4 257.6.3 175.9.6 171.5 1z"/><path d="M565 347.5c0 60.8.2 110.5.3 110.5.2 0 8-3.5 17.3-7.9 39.1-18.2 72.8-29.1 100-32.2 5.5-.6 10.5-1.3 11.2-1.5.9-.3 1.2-14.9 1.2-68.6v-68.4l-9.8-1.1c-31.2-3.8-72.9-17.5-111.1-36.8L565 237v110.5zM119 242.6c-35.3 17.9-78.1 32-108.2 35.6L0 279.4V416l2.3.4c1.2.2 6.7 1 12.1 1.6 26.1 3.1 63.1 15.2 99.5 32.6 8.5 4.1 15.5 7.4 15.7 7.4.2 0 .4-49.5.4-110 0-87.4-.3-110-1.2-109.9-.7.1-5.1 2.1-9.8 4.5z"/><path d="M0 480c0 17.5.5 36.4 1 42.1 9 88.4 73.9 157 162 171 6.9 1.1 41.7 1.4 187 1.4h178.5l11.5-2.4C599.1 680 647.1 644 674 591.7c7.9-15.2 14.6-34.2 18.1-51.2 2.1-10.2 2.3-14 2.7-51.7l.3-40.7-5.3.5c-35.3 3.7-80.8 21.2-140.7 54.1-97.6 53.5-209.3 66.2-316.6 35.8-29.4-8.3-65.3-23.5-92.5-39.2-12.7-7.3-52.5-26.3-68.9-32.8-23.8-9.5-49.2-16.4-65.8-17.8l-5.3-.4V480z"/></svg>