<?xml version="1.0" encoding="utf-8"?>
<!-- Generator: Adobe Illustrator 24.1.1, SVG Export Plug-In . SVG Version: 6.00 Build 0)  -->
<svg version="1.1" id="Layer_1" xmlns="http://www.w3.org/2000/svg" xmlns:xlink="http://www.w3.org/1999/xlink" x="0px" y="0px"
	 viewBox="0 0 171.6 156.7" style="enable-background:new 0 0 171.6 156.7;" xml:space="preserve">
<style type="text/css">
	.st0{fill:#FF0D58;}
	.st1{clip-path:url(#SVGID_2_);}
	.st2{fill:#E00051;}
	.st3{fill:none;}
	.st4{fill:#C0E5E6;}
	.st5{fill:#97F4EC;}
	.st6{fill:#B6FFF6;}
	.st7{fill:#DAFFFB;}
	.st8{fill:#FFFFFF;}
	.st9{enable-background:new    ;}
	.st10{fill:#000222;}
</style>
<g>
	<g>
		<g id="Layer_2_1_" transform="translate(0 0)">
			<path id="Path_1" class="st0" d="M117.4,44.2v28.7c0,9.6-7.8,17.4-17.4,17.4H71.2c-9.6,0-17.4-7.8-17.4-17.4V44.2
				c0-9.6,7.8-17.4,17.4-17.4h28.7C109.6,26.7,117.4,34.6,117.4,44.2z"/>
		</g>
		<g id="Layer_3">
			<g id="Group_2" transform="translate(0 0)">
				<g>
					<g>
						<defs>
							<path id="SVGID_1_" d="M117.4,44.2v28.7c0,9.6-7.8,17.4-17.4,17.4H71.2c-9.6,0-17.4-7.8-17.4-17.4V44.2
								c0-9.6,7.8-17.4,17.4-17.4h28.7C109.6,26.7,117.4,34.6,117.4,44.2z"/>
						</defs>
						<clipPath id="SVGID_2_">
							<use xlink:href="#SVGID_1_"  style="overflow:visible;"/>
						</clipPath>
						<g id="Group_1" class="st1">
							<path id="Path_2" class="st2" d="M65.7,71.5l18.8,18.8h32.8V60.4l-11.9-11.9L65.7,71.5"/>
						</g>
					</g>
				</g>
			</g>
		</g>
		<g id="Layer_5">
			<rect id="Rectangle_2" x="53.8" y="26.7" class="st3" width="64" height="64"/>
		</g>
		<g id="Layer_1_1_" transform="translate(0 12.877)">
			<path id="Path_4" class="st4" d="M85.6,28c-9.5,0-17.7,4.8-17.8,4.9v12.8v5.8l0,0v7c0.1,0,8.2,4.8,17.7,4.9l0.1,0.6l17.8-5.5v-7
				l0,0V32.9C103.3,32.8,95,28,85.6,28z"/>
			<path id="Path_5" class="st5" d="M103.7,32.9v7l-20.8-2.4l2.5-9.5C95.1,28,103.6,32.8,103.7,32.9z"/>
			<path id="Path_6" class="st6" d="M103.7,51.4v7L85.4,64l-2.5-11.4C82.9,52.6,103.6,51.5,103.7,51.4z"/>
			<path id="Path_7" class="st5" d="M82.9,44.4l2.5,9.5c6.2,0,12.3-0.9,18.3-2.4v-5.8C103.6,45.7,82.9,44.4,82.9,44.4z"/>
			<path id="Path_8" class="st6" d="M103.7,39.9v5.8H82.9l2.5-8.2C91.6,37.5,97.7,38.3,103.7,39.9z"/>
			<path id="Path_9" class="st7" d="M85.8,53.9v9.5c-9.7,0-18.2-4.8-18.3-4.9v-7L85.8,53.9z"/>
			<path id="Path_10" class="st6" d="M85.8,28v9.5l-18.3,2.4v-7C73.1,29.9,79.4,28.2,85.8,28z"/>
			<path id="Path_11" class="st7" d="M85.8,37.5v8.2l-9.1,2.5l-9.1-2.5v-5.8C73.5,38.3,79.6,37.5,85.8,37.5z"/>
			<path id="Path_12" class="st6" d="M67.5,45.7v5.8c6,1.6,12.1,2.4,18.3,2.4v-8.2H67.5z"/>
			<path id="Path_13" class="st8" d="M105.5,55.8L105.5,55.8l-0.1-20.2h0.1c2.5,1.2,7.1,3.5,11.9,3.8v-2.9
				c-4.2-0.3-8.3-2.4-10.6-3.5c-0.5-0.3-1-0.5-1.3-0.6l0,0l-0.6-0.4c-11.9-7-26.6-7-38.5,0l-0.6,0.4l0,0c-0.4,0.2-0.8,0.4-1.3,0.6
				c-2.3,1.1-6.4,3.3-10.6,3.5v2.9c4.7-0.3,9.4-2.6,11.9-3.8h0.1v20.3h-0.1c-2.5-1.2-7.1-3.5-11.9-3.8V55c4.2,0.3,8.3,2.4,10.6,3.5
				c0.6,0.3,1,0.5,1.4,0.7l0.5,0.3c11.9,7,26.6,7,38.5,0l0.5-0.3c0.4-0.2,0.8-0.4,1.4-0.7c2.3-1.1,6.4-3.3,10.6-3.5v-2.9
				C112.7,52.3,108,54.6,105.5,55.8z M103,57.5c-10.8,6-24,6-34.8,0V33.8c10.8-6.1,24-6.1,34.8,0V57.5z"/>
		</g>
	</g>
	<g class="st9">
		<path class="st10" d="M32.9,127.9c-1.1-1.3-1.7-3.2-1.7-5.5c0-1.6,0.3-2.9,0.9-4.1c0.6-1.1,1.4-2,2.5-2.6s2.3-0.9,3.7-0.9
			c1.7,0,3.1,0.5,4,1.4s1.4,2.2,1.5,3.9c0,1.1-0.1,2-0.2,2.5H35c0.1,1.6,0.4,2.8,1.1,3.7c0.7,0.9,1.6,1.3,2.9,1.3
			c0.7,0,1.4-0.1,2.1-0.3c0.7-0.2,1.3-0.5,1.7-0.8l0.6,1.4c-0.5,0.5-1.2,1-2.3,1.4c-1,0.4-2.1,0.6-3.2,0.6
			C35.7,129.9,34,129.3,32.9,127.9z M40,121.1c0-0.5,0.1-0.9,0.1-1.1c0-2.3-0.8-3.5-2.3-3.5c-0.8,0-1.5,0.3-2,1s-0.7,1.9-0.8,3.6H40
			z"/>
		<path class="st10" d="M45.6,128.1l2.1-0.3v-15.5l-2-0.4v-1.6h3.8c0.3,0,0.7,0,1.1,0c0.4,0,0.7,0,0.9-0.1c0.9-0.1,1.6-0.1,2.2-0.1
			c1.8,0,3.2,0.2,4.3,0.5s1.9,0.9,2.3,1.7s0.7,1.7,0.7,2.9c0,1.2-0.3,2.3-1,3.3c-0.6,1-1.6,1.7-2.8,2.1c0.7,0.3,1.3,0.8,1.8,1.6
			c0.5,0.8,1.1,1.8,1.7,3c0.4,0.8,0.8,1.5,1,1.8c0.2,0.4,0.5,0.6,0.7,0.6l0.9,0.3v1.5H59c-0.3,0-0.6-0.3-0.9-0.8
			c-0.3-0.6-0.7-1.5-1.2-2.7c-0.6-1.4-1.1-2.5-1.5-3.3s-0.9-1.3-1.3-1.5h-2.7v6.5l2.4,0.3v1.6h-8.3L45.6,128.1L45.6,128.1z
			 M56.1,118.7c0.6-0.7,0.8-1.8,0.8-3.2c0-1.3-0.3-2.2-0.8-2.8c-0.5-0.6-1.5-0.9-2.8-0.9c-0.5,0-0.9,0-1.2,0.1
			c-0.3,0-0.6,0.1-0.7,0.1v7.8c0.2,0,0.7,0.1,1.5,0.1h0.9C54.8,119.7,55.6,119.4,56.1,118.7z"/>
		<path class="st10" d="M65.4,118.3c0.7-1.1,1.5-2,2.6-2.6s2.3-0.9,3.6-0.9c2.2,0,3.9,0.7,5.1,2s1.8,3.2,1.8,5.5c0,1.6-0.3,3-1,4.2
			c-0.6,1.2-1.5,2-2.6,2.6s-2.3,0.8-3.6,0.8c-2.2,0-3.8-0.7-5-2s-1.8-3.2-1.8-5.5C64.5,120.8,64.8,119.4,65.4,118.3z M74.5,122.6
			c0-2-0.2-3.5-0.7-4.5s-1.2-1.5-2.3-1.5c-2,0-3,1.9-3,5.7c0,2,0.2,3.5,0.7,4.5s1.3,1.5,2.3,1.5C73.5,128.2,74.5,126.4,74.5,122.6z"
			/>
		<path class="st10" d="M91.3,129.5c-0.3-0.2-0.4-0.6-0.4-1.1v-0.7c-0.5,0.6-1.1,1.1-2,1.5c-0.8,0.4-1.7,0.7-2.5,0.7
			c-1.7,0-2.9-0.4-3.6-1.3c-0.7-0.9-1.1-2.3-1.1-4.3V117l-1.3-0.4v-1.5l4.4-0.3l0,0l0.5,0.4v9.2c0,1.3,0.2,2.1,0.5,2.7
			s0.9,0.8,1.7,0.8c1,0,2-0.4,2.9-1.2v-9.5l-1.7-0.4v-1.5l4.7-0.3h0.1l0.6,0.4V128h1.5v1.5c-0.1,0-0.4,0.1-1,0.2s-1.3,0.2-2.1,0.2
			C92,129.9,91.6,129.8,91.3,129.5z"/>
		<path class="st10" d="M100.3,127.5c0.1,0.2,0.5,0.4,0.9,0.6c0.5,0.2,1,0.3,1.5,0.3c0.8,0,1.4-0.2,1.8-0.5s0.6-0.8,0.6-1.3
			c0-0.6-0.3-1-0.8-1.4s-1.4-0.8-2.5-1.3l-0.7-0.3c-1.2-0.5-2.1-1.1-2.7-1.8c-0.6-0.7-0.9-1.6-0.9-2.8c0-0.8,0.2-1.5,0.7-2.1
			s1.1-1.1,2-1.4c0.8-0.3,1.8-0.5,2.9-0.5c0.8,0,1.5,0.1,2.1,0.2s1.2,0.2,1.8,0.4c0.3,0.1,0.6,0.2,0.8,0.2v3.4h-2.1l-0.6-2
			c-0.1-0.2-0.3-0.3-0.7-0.5c-0.4-0.1-0.8-0.2-1.2-0.2c-0.7,0-1.3,0.2-1.7,0.5c-0.4,0.3-0.6,0.7-0.6,1.3c0,0.5,0.1,0.9,0.4,1.2
			c0.3,0.3,0.6,0.6,1,0.7c0.3,0.2,1,0.5,1.9,0.9s1.7,0.8,2.3,1.1c0.6,0.4,1.1,0.8,1.5,1.4s0.6,1.3,0.6,2.1c0,1.3-0.5,2.3-1.5,3.1
			c-1,0.8-2.5,1.2-4.3,1.2c-0.9,0-1.7-0.1-2.4-0.2c-0.7-0.2-1.5-0.4-2.4-0.6l-0.6-0.2v-3.4h2.2L100.3,127.5z M103,110.5l3.8-3.5
			l1.2,1l-3.9,5.1h-2.3L98,108l1.2-1L103,110.5z"/>
		<path class="st10" d="M112.1,110.6l-1.9-0.3v-1.4l4.8-0.6h0.1l0.7,0.5v12.4l-0.1,1.4l5.3-5.6l-1.9-0.3v-1.5h6.8v1.5l-2.1,0.3
			l-3.2,3.1l4.6,7.8l1.4,0.2v1.6h-6.9v-1.6l1.3-0.2l-3-5.5l-2.3,2.4l0.1,1.3v1.8l1.6,0.2v1.6h-6.8v-1.6l1.5-0.2V110.6z"/>
		<path class="st10" d="M129.4,122c1.6-0.8,3.6-1.2,6.1-1.2v-0.6c0-0.7-0.1-1.3-0.2-1.7c-0.1-0.4-0.4-0.7-0.8-0.9
			c-0.4-0.2-1-0.3-1.7-0.3c-0.8,0-1.6,0.1-2.3,0.3c-0.7,0.2-1.4,0.5-2.1,0.8l-0.8-1.7c0.3-0.2,0.7-0.5,1.3-0.8s1.3-0.6,2.2-0.8
			c0.8-0.2,1.7-0.4,2.6-0.4c1.3,0,2.4,0.2,3.1,0.5s1.3,0.9,1.6,1.7s0.5,1.8,0.5,3.1v8h1.4v1.5c-0.3,0.1-0.8,0.2-1.5,0.3
			c-0.6,0.1-1.2,0.1-1.7,0.1c-0.6,0-1-0.1-1.2-0.3s-0.3-0.5-0.3-1.1v-0.7c-0.5,0.5-1.1,1-1.8,1.4s-1.6,0.6-2.5,0.6
			c-0.8,0-1.5-0.2-2.2-0.5s-1.2-0.8-1.6-1.5c-0.4-0.6-0.6-1.4-0.6-2.4C127,124,127.8,122.8,129.4,122z M134.3,127.4
			c0.5-0.2,0.9-0.5,1.2-0.8v-4.3c-1.6,0-2.7,0.3-3.5,0.8s-1.2,1.2-1.2,2s0.2,1.5,0.6,1.9c0.4,0.4,0.9,0.7,1.6,0.7
			C133.4,127.8,133.8,127.7,134.3,127.4z"/>
	</g>
</g>
</svg>
