<?xml version="1.0" encoding="utf-8"?>
<!-- Generator: Adobe Illustrator 24.1.1, SVG Export Plug-In . SVG Version: 6.00 Build 0)  -->
<svg version="1.1" id="Layer_1" xmlns="http://www.w3.org/2000/svg" xmlns:xlink="http://www.w3.org/1999/xlink" x="0px" y="0px"
	 viewBox="0 0 239.9 108.6" style="enable-background:new 0 0 239.9 108.6;" xml:space="preserve">
<style type="text/css">
	.st0{fill:#FF0D58;}
	.st1{clip-path:url(#SVGID_2_);}
	.st2{fill:#E00051;}
	.st3{fill:none;}
	.st4{fill:#C0E5E6;}
	.st5{fill:#97F4EC;}
	.st6{fill:#B6FFF6;}
	.st7{fill:#DAFFFB;}
	.st8{fill:#FFFFFF;}
	.st9{enable-background:new    ;}
	.st10{fill:#212221;}
</style>
<g>
	<g id="Layer_2_1_" transform="translate(0 0)">
		<path id="Path_1" class="st0" d="M88,39.7v28.7c0,9.6-7.8,17.4-17.4,17.4H41.9c-9.6,0-17.4-7.8-17.4-17.4V39.7
			c0-9.6,7.8-17.4,17.4-17.4h28.7C80.2,22.3,88,30.1,88,39.7z"/>
	</g>
	<g id="Layer_3">
		<g id="Group_2" transform="translate(0 0)">
			<g>
				<defs>
					<path id="SVGID_1_" d="M88,39.7v28.7c0,9.6-7.8,17.4-17.4,17.4H41.9c-9.6,0-17.4-7.8-17.4-17.4V39.7c0-9.6,7.8-17.4,17.4-17.4
						h28.7C80.2,22.3,88,30.1,88,39.7z"/>
				</defs>
				<clipPath id="SVGID_2_">
					<use xlink:href="#SVGID_1_"  style="overflow:visible;"/>
				</clipPath>
				<g id="Group_1" class="st1">
					<path id="Path_2" class="st2" d="M36.4,67l18.8,18.8H88V56L76.1,44.1L36.4,67"/>
				</g>
			</g>
		</g>
	</g>
	<g id="Layer_5">
		<rect id="Rectangle_2" x="24.4" y="22.3" class="st3" width="64" height="64"/>
	</g>
	<g id="Layer_1_1_" transform="translate(0 12.877)">
		<path id="Path_4" class="st4" d="M56.2,23.5c-9.5,0-17.7,4.8-17.8,4.9v12.8V47l0,0v7c0.1,0,8.2,4.8,17.7,4.9l0.1,0.6L74,54v-7l0,0
			V28.4C73.9,28.4,65.7,23.5,56.2,23.5z"/>
		<path id="Path_5" class="st5" d="M74.3,28.4v7L53.5,33l2.5-9.5C65.8,23.5,74.3,28.4,74.3,28.4z"/>
		<path id="Path_6" class="st6" d="M74.3,47v7l-18.3,5.5l-2.5-11.4C53.5,48.1,74.2,47,74.3,47z"/>
		<path id="Path_7" class="st5" d="M53.5,39.9l2.5,9.5c6.2,0,12.3-0.9,18.3-2.4v-5.8C74.3,41.2,53.5,39.9,53.5,39.9z"/>
		<path id="Path_8" class="st6" d="M74.3,35.4v5.8H53.5l2.5-8.2C62.2,33,68.4,33.9,74.3,35.4z"/>
		<path id="Path_9" class="st7" d="M56.4,49.4v9.5c-9.7,0-18.2-4.8-18.3-4.9v-7L56.4,49.4z"/>
		<path id="Path_10" class="st6" d="M56.4,23.5V33l-18.3,2.4v-7C43.8,25.4,50,23.7,56.4,23.5z"/>
		<path id="Path_11" class="st7" d="M56.4,33v8.2l-9.1,2.5l-9.1-2.5v-5.8C44.1,33.9,50.3,33,56.4,33z"/>
		<path id="Path_12" class="st6" d="M38.1,41.2V47c6,1.6,12.1,2.4,18.3,2.4v-8.2L38.1,41.2z"/>
		<path id="Path_13" class="st8" d="M76.2,51.3L76.2,51.3l-0.1-20.2l0.1,0c2.5,1.2,7.1,3.5,11.9,3.8V32c-4.2-0.3-8.3-2.4-10.6-3.5
			c-0.5-0.3-1-0.5-1.3-0.6v0l-0.6-0.4c-11.9-7-26.6-7-38.5,0l-0.6,0.4v0c-0.4,0.2-0.8,0.4-1.3,0.6c-2.3,1.1-6.4,3.3-10.6,3.5v2.9
			c4.7-0.3,9.4-2.6,11.9-3.8l0.1,0v20.3l-0.1,0c-2.5-1.2-7.1-3.5-11.9-3.8v2.9c4.2,0.3,8.3,2.4,10.6,3.5c0.6,0.3,1,0.5,1.4,0.7
			l0.5,0.3c11.9,7,26.6,7,38.5,0l0.5-0.3c0.4-0.2,0.8-0.4,1.4-0.7c2.3-1.1,6.4-3.3,10.6-3.5v-2.9C83.3,47.8,78.6,50.1,76.2,51.3z
			 M73.6,53.1c-10.8,6-24,6-34.8,0V29.3c10.8-6.1,24-6.1,34.8,0V53.1z"/>
	</g>
</g>
<g class="st9">
	<path class="st10" d="M111.1,61.5c-1.1-1.3-1.7-3.2-1.7-5.5c0-1.6,0.3-2.9,0.9-4.1c0.6-1.1,1.4-2,2.5-2.6c1.1-0.6,2.3-0.9,3.7-0.9
		c1.7,0,3.1,0.5,4,1.4s1.4,2.2,1.5,3.9c0,1.1-0.1,2-0.2,2.5h-8.5c0.1,1.6,0.4,2.8,1.1,3.7c0.7,0.9,1.6,1.3,2.9,1.3
		c0.7,0,1.4-0.1,2.1-0.3c0.7-0.2,1.3-0.5,1.7-0.8l0.6,1.4c-0.5,0.5-1.2,1-2.3,1.4c-1,0.4-2.1,0.6-3.2,0.6
		C113.9,63.6,112.2,62.9,111.1,61.5z M118.2,54.7c0-0.5,0.1-0.9,0.1-1.1c0-2.3-0.8-3.5-2.3-3.5c-0.8,0-1.5,0.3-2,1
		c-0.5,0.7-0.7,1.9-0.8,3.6H118.2z"/>
	<path class="st10" d="M123.8,61.7l2.1-0.3V45.9l-2-0.4V44h3.8c0.3,0,0.7,0,1.1,0c0.4,0,0.7,0,0.9-0.1c0.9-0.1,1.6-0.1,2.2-0.1
		c1.8,0,3.2,0.2,4.3,0.5s1.9,0.9,2.3,1.7s0.7,1.7,0.7,2.9c0,1.2-0.3,2.3-1,3.3c-0.6,1-1.6,1.7-2.8,2.1c0.7,0.3,1.3,0.8,1.8,1.6
		c0.5,0.8,1.1,1.8,1.7,3c0.4,0.8,0.8,1.5,1,1.8c0.2,0.4,0.5,0.6,0.7,0.6l0.9,0.3v1.5h-4.4c-0.3,0-0.6-0.3-0.9-0.8
		c-0.3-0.6-0.7-1.5-1.2-2.7c-0.6-1.4-1.1-2.5-1.5-3.3s-0.9-1.3-1.3-1.5h-2.7v6.5l2.4,0.3v1.6h-8.3V61.7z M134.3,52.3
		c0.6-0.7,0.8-1.8,0.8-3.2c0-1.3-0.3-2.2-0.8-2.8c-0.5-0.6-1.5-0.9-2.8-0.9c-0.5,0-0.9,0-1.2,0.1c-0.3,0-0.6,0.1-0.7,0.1v7.8
		c0.2,0,0.7,0.1,1.5,0.1h0.9C133,53.4,133.8,53,134.3,52.3z"/>
	<path class="st10" d="M143.6,51.9c0.7-1.1,1.5-2,2.6-2.6c1.1-0.6,2.3-0.9,3.6-0.9c2.2,0,3.9,0.7,5.1,2c1.2,1.3,1.8,3.2,1.8,5.5
		c0,1.6-0.3,3-1,4.2c-0.6,1.2-1.5,2-2.6,2.6c-1.1,0.6-2.3,0.8-3.6,0.8c-2.2,0-3.8-0.7-5-2c-1.2-1.3-1.8-3.2-1.8-5.5
		C142.7,54.4,143,53.1,143.6,51.9z M152.6,56.2c0-2-0.2-3.5-0.7-4.5c-0.5-1-1.2-1.5-2.3-1.5c-2,0-3,1.9-3,5.7c0,2,0.2,3.5,0.7,4.5
		s1.3,1.5,2.3,1.5C151.7,61.9,152.6,60,152.6,56.2z"/>
	<path class="st10" d="M169.5,63.2c-0.3-0.2-0.4-0.6-0.4-1.1v-0.7c-0.5,0.6-1.1,1.1-2,1.5c-0.8,0.4-1.7,0.7-2.5,0.7
		c-1.7,0-2.9-0.4-3.6-1.3S160,60,160,58v-7.3l-1.3-0.4v-1.5l4.4-0.3h0l0.5,0.4V58c0,1.3,0.2,2.1,0.5,2.7s0.9,0.8,1.7,0.8
		c1,0,2-0.4,2.9-1.2v-9.5l-1.7-0.4v-1.5l4.7-0.3h0.1l0.6,0.4v12.8h1.5l0,1.5c-0.1,0-0.4,0.1-1,0.2s-1.3,0.2-2.1,0.2
		C170.2,63.5,169.8,63.4,169.5,63.2z"/>
	<path class="st10" d="M178.5,61.1c0.1,0.2,0.5,0.4,0.9,0.6s1,0.3,1.5,0.3c0.8,0,1.4-0.2,1.8-0.5c0.4-0.3,0.6-0.8,0.6-1.3
		c0-0.6-0.3-1-0.8-1.4s-1.4-0.8-2.5-1.3l-0.7-0.3c-1.2-0.5-2.1-1.1-2.7-1.8c-0.6-0.7-0.9-1.6-0.9-2.8c0-0.8,0.2-1.5,0.7-2.1
		s1.1-1.1,2-1.4c0.8-0.3,1.8-0.5,2.9-0.5c0.8,0,1.5,0.1,2.1,0.2c0.6,0.1,1.2,0.2,1.8,0.4c0.3,0.1,0.6,0.2,0.8,0.2v3.4h-2.1l-0.6-2
		c-0.1-0.2-0.3-0.3-0.7-0.5c-0.4-0.1-0.8-0.2-1.2-0.2c-0.7,0-1.3,0.2-1.7,0.5c-0.4,0.3-0.6,0.7-0.6,1.3c0,0.5,0.1,0.9,0.4,1.2
		c0.3,0.3,0.6,0.6,1,0.7c0.3,0.2,1,0.5,1.9,0.9c0.9,0.4,1.7,0.8,2.3,1.1c0.6,0.4,1.1,0.8,1.5,1.4c0.4,0.6,0.6,1.3,0.6,2.1
		c0,1.3-0.5,2.3-1.5,3.1c-1,0.8-2.5,1.2-4.3,1.2c-0.9,0-1.7-0.1-2.4-0.2c-0.7-0.2-1.5-0.4-2.4-0.6l-0.6-0.2v-3.4h2.2L178.5,61.1z
		 M181.2,44.2l3.8-3.5l1.2,1l-3.9,5.1h-2.3l-3.8-5.1l1.2-1L181.2,44.2z"/>
	<path class="st10" d="M190.3,44.3l-1.9-0.3v-1.4l4.8-0.6h0.1l0.7,0.5v12.4l-0.1,1.4l5.3-5.6l-1.9-0.3v-1.5h6.8v1.5l-2.1,0.3
		l-3.2,3.1l4.6,7.8l1.4,0.2v1.6h-6.9v-1.6l1.3-0.2l-3-5.5l-2.3,2.4l0.1,1.3v1.8l1.6,0.2v1.6h-6.8v-1.6l1.5-0.2V44.3z"/>
	<path class="st10" d="M207.6,55.7c1.6-0.8,3.6-1.2,6.1-1.2v-0.6c0-0.7-0.1-1.3-0.2-1.7c-0.1-0.4-0.4-0.7-0.8-0.9
		c-0.4-0.2-1-0.3-1.7-0.3c-0.8,0-1.6,0.1-2.3,0.3c-0.7,0.2-1.4,0.5-2.1,0.8l-0.8-1.7c0.3-0.2,0.7-0.5,1.3-0.8
		c0.6-0.3,1.3-0.6,2.2-0.8c0.8-0.2,1.7-0.4,2.6-0.4c1.3,0,2.4,0.2,3.1,0.5s1.3,0.9,1.6,1.7s0.5,1.8,0.5,3.1v8h1.4v1.5
		c-0.3,0.1-0.8,0.2-1.5,0.3c-0.6,0.1-1.2,0.1-1.7,0.1c-0.6,0-1-0.1-1.2-0.3c-0.2-0.2-0.3-0.5-0.3-1.1v-0.7c-0.5,0.5-1.1,1-1.8,1.4
		s-1.6,0.6-2.5,0.6c-0.8,0-1.5-0.2-2.2-0.5s-1.2-0.8-1.6-1.5c-0.4-0.6-0.6-1.4-0.6-2.4C205.2,57.6,206,56.5,207.6,55.7z M212.5,61.1
		c0.5-0.2,0.9-0.5,1.2-0.8V56c-1.6,0-2.7,0.3-3.5,0.8c-0.8,0.5-1.2,1.2-1.2,2s0.2,1.5,0.6,1.9c0.4,0.4,0.9,0.7,1.6,0.7
		C211.6,61.4,212,61.3,212.5,61.1z"/>
</g>
</svg>
