<?xml version="1.0" encoding="UTF-8"?>
<!DOCTYPE svg PUBLIC "-//W3C//DTD SVG 1.1//EN" "http://www.w3.org/Graphics/SVG/1.1/DTD/svg11.dtd">
<svg xmlns="http://www.w3.org/2000/svg">
    <symbol id="arrow-down" viewBox="0 0.021 50 25">
        <path d="M50 .021l-25 25-25-25h50z"/>
    </symbol>
    <symbol id="arrow-left" viewBox="0 0 25 50">
        <path d="M25.021 50L-.021 25 25.021 0v50z"/>
    </symbol>
    <symbol id="arrow-right" viewBox="0 0 25 50">
        <path d="M0 0l25 25L0 50V0z"/>
    </symbol>
    <symbol id="arrow-up" viewBox="0 0.021 50 25">
        <path d="M0 25.021l25.001-25 24.999 25H0z"/>
    </symbol>
    <symbol id="close" viewBox="0 0 50 50">
        <path d="M38.73 49.706L25.149 36.124 11.27 50 0 38.73l13.881-13.876L.293 11.271 11.566 0l13.583 13.584L38.512.222l11.266 11.269-13.36 13.363L50 38.433z"/>
    </symbol>
    <symbol id="color-graph" viewBox="0 0 50 50">
        <path fill="#009DFF" d="M15.002 44.459c0 1.682-1.258 3.043-2.809 3.043H6.811c-1.551 0-2.809-1.361-2.809-3.043V15.547c0-1.681 1.258-3.043 2.809-3.043h5.383c1.551 0 2.809 1.363 2.809 3.043v28.912z"/>
        <path fill="#D9314F" d="M30.5 44.459c0 1.682-1.258 3.043-2.809 3.043h-5.383c-1.551 0-2.809-1.361-2.809-3.043V5.541c0-1.681 1.258-3.043 2.809-3.043h5.383c1.551 0 2.809 1.363 2.809 3.043v38.918z"/>
        <path fill="#B9FF00" d="M45.996 44.459c0 1.682-1.258 3.043-2.809 3.043h-5.383c-1.551 0-2.809-1.361-2.809-3.043V25.553c0-1.68 1.258-3.043 2.809-3.043h5.383c1.551 0 2.809 1.363 2.809 3.043v18.906z"/>
    </symbol>
    <symbol id="color-pacman" viewBox="0 0 50 50">
        <ellipse fill="#CF0D51" cx="24.2" cy="22.3" rx="22.4" ry="22.3"/>
        <linearGradient id="SVGID_1_" gradientUnits="userSpaceOnUse" x1="25" y1="3.077" x2="25" y2="50.001">
            <stop offset="0"/>
            <stop offset=".138"/>
            <stop offset="1"/>
        </linearGradient>
        <ellipse fill="url(#SVGID_1_)" cx="25" cy="26.5" rx="25" ry="23.5"/>
        <path fill="#FFF" d="M25.5 22.3l8.8-5.1c-1.9-3.4-5.5-5.7-9.7-5.7-6.1 0-11.1 5-11.1 11.1s5 11.1 11.1 11.1c4.4 0 8.2-2.5 10-6.2l-9.1-5.2zm-3.9-2.9c-1.2 0-2.2-1-2.2-2.2s1-2.2 2.2-2.2 2.2 1 2.2 2.2-1 2.2-2.2 2.2z"/>
    </symbol>
    <symbol id="color-vlajka" viewBox="0 0 50 30">
        <path fill-rule="evenodd" clip-rule="evenodd" fill="#FFF" d="M0 0h50v30H0V0z"/>
        <path fill-rule="evenodd" clip-rule="evenodd" fill="#D7141A" d="M0 30h50V15H0v15z"/>
        <path fill-rule="evenodd" clip-rule="evenodd" fill="#11457E" d="M0 30l21.9-15L0 .1V30z"/>
    </symbol>
    <symbol id="email" viewBox="0.539 -1.11 50 38">
        <path d="M16.611 17.91L.539 1.782v32.215zM3.429-1.11l21.264 21.335c.226.231.521.343.858.343.341 0 .628-.111.855-.343L47.673-1.11H3.429zM31.601 20.805l-4.336 4.304a2.304 2.304 0 0 1-1.714.735c-.67 0-1.251-.247-1.74-.735l-4.313-4.304L3.429 36.89h44.225L31.601 20.805zM34.488 17.91l16.051 16.087V1.782z"/>
    </symbol>
    <symbol id="error" viewBox="0 0.093 50 50">
        <path d="M42.705 7.37C37.842 2.527 31.943.093 25 .093c-6.942 0-12.852 2.433-17.705 7.277C2.433 12.216 0 18.103 0 25.02c0 6.928 2.433 12.835 7.295 17.728 4.854 4.894 10.763 7.346 17.705 7.346 6.943 0 12.842-2.452 17.705-7.346C47.56 37.855 50 31.948 50 25.02c0-6.917-2.441-12.804-7.295-17.65zm-9.932 31.67l-7.686-7.667-7.861 7.832-6.387-6.362 7.86-7.833-7.694-7.667 6.387-6.362 7.695 7.666 7.567-7.54 6.377 6.364-7.567 7.539 7.694 7.667-6.385 6.363z"/>
    </symbol>
    <symbol id="phone" viewBox="8.175 8.431 35 50">
        <path d="M36.884 23.663c.73.166 1.253.283 1.695.283h.12c1.053-.084 2.023-1.08 2.988-3.01 1.011-1.971 1.487-3.979 1.487-6.073 0-1.204-.322-2.133-.926-2.815-.604-.599-1.777-1.245-3.55-1.924a1.584 1.584 0 0 0-.354-.161c0 2.529-.37 4.9-1.054 7.115-.724 2.206-1.74 4.137-3.059 5.745 1.093.363 1.971.646 2.653.84zM23.418 45.573c-.442 1.807-1.171 3.492-2.099 5.064-.2.354-.435.68-.678 1.045-1.289 1.81-2.947 3.451-4.965 4.896a17.46 17.46 0 0 0 2.46 1.37c.722.315 1.296.481 1.739.481.479 0 .964-.125 1.444-.325 1.016-.48 2.099-1.443 3.189-2.928 1.658-2.17 2.459-4.064 2.459-5.664 0-.603-.233-1.169-.721-1.734-.494-.565-1.457-1.282-2.828-2.205M11.646 54.168c.478.443.884.763 1.296.966.361.205.678.322 1.002.322.442 0 1.171-.4 2.136-1.2a20.637 20.637 0 0 0 2.903-3.143c.804-1.042 1.496-2.254 2.056-3.613.081-.242.206-.483.28-.721.361-.924.566-1.532.566-1.849 0-.165-.206-.487-.566-.97-.119-.159-.28-.358-.435-.565-.693-.796-1.009-1.566-1.009-2.407 0-1.046.316-2.498.92-4.222.163-.44.324-.925.524-1.402a67.197 67.197 0 0 1 2.173-4.906c1.37-2.779 2.469-4.699 3.308-5.789.854-1.124 1.739-1.848 2.63-2.129.198-.085.567-.162 1.044-.202 1.54-.162 2.705-.845 3.473-2.005.677-1.167 1.288-2.701 1.81-4.548.523-1.843.812-3.412.812-4.699 0-1.04-.16-1.727-.485-2.085-.326-.367-1.008-.57-2.099-.57-1.657 0-3.021.125-4.192.361-1.164.242-2.021.568-2.623 1.013-.769.517-1.938 1.806-3.552 3.854a61.809 61.809 0 0 0-2.297 3.098c-.893 1.193-1.724 2.489-2.616 3.892a77.808 77.808 0 0 0-7.581 15.277c-1.973 5.426-2.947 9.483-2.947 12.218 0 .517.125 1.087.361 1.686.244.563.649 1.37 1.252 2.329l1.856 2.009z"/>
    </symbol>
    <symbol id="success" viewBox="0 0.089 50 50">
        <path d="M42.707 7.297C37.844 2.434 31.938 0 24.999 0 18.057 0 12.151 2.434 7.293 7.297 2.432 12.16 0 18.069 0 25.014c0 6.954 2.432 12.879 7.293 17.799 4.858 4.906 10.764 7.363 17.706 7.363 6.94 0 12.846-2.457 17.708-7.363C47.559 37.893 50 31.968 50 25.014c0-6.944-2.441-12.854-7.293-17.717zM26.878 35.835l-6.385 6.385-6.384-6.385-7.695-7.693 6.386-6.384 7.693 7.695L38.76 11.186l6.384 6.383-18.266 18.266z"/>
    </symbol>
    <symbol id="warn" viewBox="0 0.088 50 50">
        <path d="M42.707 7.298C37.844 2.435 31.938.001 24.997.001c-6.94 0-12.847 2.435-17.706 7.297C2.431 12.161 0 18.07 0 25.013c0 6.954 2.432 12.877 7.291 17.799 4.859 4.906 10.765 7.363 17.706 7.363 6.942 0 12.847-2.457 17.71-7.363C47.559 37.891 50 31.967 50 25.013c0-6.942-2.441-12.851-7.293-17.715zm-13.192 35.22h-9.029l.001-6.717h9.028v6.717zm-9.03-11.262L20.484 7.66l9.028-.001.001 23.597h-9.028z"/>
    </symbol>
</svg>
