<svg id="covid-logo" xmlns="http://www.w3.org/2000/svg" width="125.241" height="55.889" viewBox="0 0 125.241 55.889">
  <path id="Path_16" data-name="Path 16" d="M140.854,28.586a25.4,25.4,0,1,1-25.4-25.4A25.4,25.4,0,0,1,140.854,28.586Z" transform="translate(-18.152 -0.641)" fill="#ffe600"/>
  <path id="Path_17" data-name="Path 17" d="M142.752,27.944A27.944,27.944,0,1,1,114.807,0,27.944,27.944,0,0,1,142.752,27.944Zm-27.944,25.4a25.4,25.4,0,1,0-25.4-25.4A25.4,25.4,0,0,0,114.807,53.348Z" transform="translate(-17.511 0)" fill-rule="evenodd"/>
  <path id="Path_18" data-name="Path 18" d="M127.873,32.329a8.053,8.053,0,1,1-8.724-7.32A8.053,8.053,0,0,1,127.873,32.329Z" transform="translate(-22.537 -5.035)"/>
  <path id="Path_19" data-name="Path 19" d="M117.806,13.319c.048.549-.494,1.065-1.286,1.3l1.252,14.305,9.23-11c-.517-.643-.664-1.377-.31-1.8.44-.524,1.487-.37,2.339.345s1.186,1.719.746,2.243c-.354.422-1.1.4-1.826.007l-9.23,11,14.305-1.252c.089-.82.5-1.443,1.053-1.491.682-.06,1.313.79,1.409,1.9s-.377,2.054-1.059,2.114c-.549.048-1.065-.494-1.3-1.286l-14.305,1.252,11,9.23c.643-.516,1.376-.664,1.8-.31.524.44.37,1.487-.345,2.338s-1.719,1.186-2.244.746c-.422-.354-.4-1.1-.007-1.826l-11-9.23,1.252,14.305c.82.09,1.443.5,1.491,1.053.059.682-.79,1.313-1.9,1.41s-2.054-.377-2.113-1.059c-.048-.549.494-1.065,1.285-1.3L116.8,32.008l-9.23,11c.516.643.663,1.377.31,1.8-.44.524-1.487.37-2.339-.345s-1.186-1.719-.747-2.243c.354-.422,1.1-.4,1.826-.007l9.23-11-14.305,1.252c-.09.82-.5,1.443-1.053,1.491-.682.06-1.313-.79-1.41-1.9s.377-2.054,1.059-2.113c.549-.048,1.066.494,1.3,1.286l14.306-1.252-11-9.23c-.643.516-1.377.664-1.8.31-.524-.44-.37-1.487.346-2.338s1.719-1.186,2.243-.746c.422.354.4,1.1.007,1.826l11,9.23-1.251-14.305c-.82-.09-1.444-.5-1.491-1.053-.06-.682.79-1.313,1.9-1.41S117.746,12.638,117.806,13.319Z" transform="translate(-19.971 -2.469)"/>
  <path id="Path_20" data-name="Path 20" d="M123.939,18.905c-.131.423-.687.64-1.34.567l-3.422,11.022,10.133-5.332c-.184-.637-.071-1.229.318-1.433.483-.254,1.206.184,1.617.978s.351,1.644-.133,1.9c-.389.2-.934-.04-1.345-.558L119.634,31.38l10.907,3.482c.315-.582.809-.918,1.228-.784.52.166.726.992.461,1.846s-.9,1.411-1.42,1.245c-.418-.134-.634-.7-.564-1.356l-10.907-3.482,5.293,10.256c.63-.185,1.215-.069,1.418.325.252.489-.18,1.22-.964,1.632s-1.625.351-1.877-.137c-.2-.394.038-.945.549-1.36l-5.293-10.256-3.422,11.023c.576.32.909.82.778,1.243-.164.525-.98.732-1.824.463s-1.4-.914-1.234-1.439c.132-.423.687-.64,1.34-.567l3.422-11.022-10.132,5.332c.184.637.07,1.229-.319,1.433-.483.254-1.206-.184-1.616-.978s-.351-1.644.132-1.9c.389-.2.934.04,1.346.558l10.133-5.332-10.908-3.482c-.315.582-.809.918-1.227.784-.52-.166-.727-.992-.461-1.846s.9-1.411,1.421-1.245c.418.134.634.7.563,1.356l10.907,3.482L112.07,20.4c-.63.185-1.215.069-1.419-.325-.252-.489.18-1.219.964-1.632s1.625-.351,1.877.137c.2.394-.038.945-.549,1.36l5.293,10.256,3.423-11.022c-.576-.32-.909-.82-.778-1.243.163-.525.98-.732,1.824-.463S124.1,18.38,123.939,18.905Z" transform="translate(-21.037 -3.497)"/>
  <path id="Path_21" data-name="Path 21" d="M121.211,38.113a4.556,4.556,0,0,1-2.226-.323,3.735,3.735,0,0,1-1.628-1.333,4.726,4.726,0,0,1-.384-4.388,3.727,3.727,0,0,1,1.372-1.6,4.553,4.553,0,0,1,2.136-.7,4.433,4.433,0,0,1,2.587.5,3.674,3.674,0,0,1,1.648,1.822l-1.91.863a1.958,1.958,0,0,0-.846-1,2.153,2.153,0,0,0-1.313-.275,2.045,2.045,0,0,0-1.479.753,2.578,2.578,0,0,0,.288,3.294,2.054,2.054,0,0,0,1.586.479,2.15,2.15,0,0,0,1.245-.5,1.958,1.958,0,0,0,.66-1.127l2.03.518a3.7,3.7,0,0,1-1.306,2.086A4.458,4.458,0,0,1,121.211,38.113Z" transform="translate(-23.506 -5.995)" fill="#ffe500"/>
  <path id="Path_22" data-name="Path 22" d="M55.51,4.265a2.54,2.54,0,0,0-2.081-1.084H5.722a2.54,2.54,0,0,0-2.54,2.54V51.449a2.54,2.54,0,0,0,2.54,2.54H53.429a2.54,2.54,0,0,0,2.081-1.084l16-22.864a2.54,2.54,0,0,0,0-2.914Z" transform="translate(-0.641 -0.641)" fill="#fefefe"/>
  <path id="Path_23" data-name="Path 23" d="M52.788,0H5.081A5.081,5.081,0,0,0,0,5.081V50.808a5.081,5.081,0,0,0,5.081,5.081H52.788a5.081,5.081,0,0,0,4.162-2.167l16-22.864a5.081,5.081,0,0,0,0-5.827l-16-22.864A5.081,5.081,0,0,0,52.788,0Zm0,2.54a2.54,2.54,0,0,1,2.081,1.084l16,22.864a2.54,2.54,0,0,1,0,2.914l-16,22.864a2.54,2.54,0,0,1-2.081,1.084H5.081a2.54,2.54,0,0,1-2.54-2.54V5.081a2.54,2.54,0,0,1,2.54-2.54Z" transform="translate(0 0)" fill-rule="evenodd"/>
  <path id="Path_24" data-name="Path 24" d="M17.167,11.136h2.717V22.568h-2.56l-.06-.752a1.955,1.955,0,0,1-.93.707,3.619,3.619,0,0,1-1.362.246,4.026,4.026,0,0,1-1.489-.275,3.771,3.771,0,0,1-1.228-.8,3.6,3.6,0,0,1-.834-1.3,5.165,5.165,0,0,1,0-3.5,3.517,3.517,0,0,1,.834-1.3,3.674,3.674,0,0,1,1.228-.789,3.935,3.935,0,0,1,1.489-.283,3.765,3.765,0,0,1,1.28.208,2.069,2.069,0,0,1,.915.61Zm-2.836,8.9a1.872,1.872,0,0,0,2.56,0,1.871,1.871,0,0,0,.506-1.384,1.87,1.87,0,0,0-.506-1.384,1.872,1.872,0,0,0-2.56,0,1.886,1.886,0,0,0-.5,1.384A1.887,1.887,0,0,0,14.331,20.038Z" transform="translate(-2.241 -2.245)"/>
  <path id="Path_25" data-name="Path 25" d="M31.322,21.432A6.853,6.853,0,0,0,31.5,23.2v.231H29.022l-.164-.811a2.346,2.346,0,0,1-1.087.722,4.384,4.384,0,0,1-1.436.238,3.755,3.755,0,0,1-.722-.067,2.685,2.685,0,0,1-.677-.216,2.154,2.154,0,0,1-.566-.4,1.931,1.931,0,0,1-.38-.625,2.547,2.547,0,0,1-.141-.878A2.411,2.411,0,0,1,24,20.517a2.023,2.023,0,0,1,.387-.648,2.339,2.339,0,0,1,.625-.469,4.5,4.5,0,0,1,.767-.342q.38-.134.908-.268l1.265-.32a1.758,1.758,0,0,0,.618-.246.445.445,0,0,0,.179-.365.509.509,0,0,0-.186-.409.906.906,0,0,0-.409-.2,2.509,2.509,0,0,0-.491-.045,1.539,1.539,0,0,0-.915.246,1.246,1.246,0,0,0-.439.826l-2.389-.394a2.824,2.824,0,0,1,1.228-1.89,5.051,5.051,0,0,1,2.687-.6q.372,0,.692.03a4.6,4.6,0,0,1,.685.1,2.973,2.973,0,0,1,.662.208,2.406,2.406,0,0,1,.573.35,2.034,2.034,0,0,1,.469.521,2.6,2.6,0,0,1,.3.729,3.869,3.869,0,0,1,.112.968Zm-4.116.365A1.73,1.73,0,0,0,28.9,20l-1.779.6a1.835,1.835,0,0,0-.514.246.419.419,0,0,0-.179.365.517.517,0,0,0,.223.439A.949.949,0,0,0,27.206,21.8Z" transform="translate(-4.808 -3.104)"/>
  <path id="Path_26" data-name="Path 26" d="M38.251,22.837a2.565,2.565,0,0,1-1.92-.685,2.711,2.711,0,0,1-.67-1.965v-3.17H34.15V14.955H34.6a1.4,1.4,0,0,0,1.042-.357A1.861,1.861,0,0,0,36,13.281v-.811h2.426v2.486h1.5v2.062h-1.5v2.865a1.079,1.079,0,0,0,.194.714.8.8,0,0,0,.61.216h.7v2.024Z" transform="translate(-6.884 -2.514)"/>
  <path id="Path_27" data-name="Path 27" d="M50.077,21.432a6.849,6.849,0,0,0,.179,1.764v.231H47.777l-.164-.811a2.347,2.347,0,0,1-1.087.722,4.384,4.384,0,0,1-1.436.238,3.756,3.756,0,0,1-.722-.067,2.686,2.686,0,0,1-.677-.216,2.153,2.153,0,0,1-.566-.4,1.93,1.93,0,0,1-.38-.625,2.549,2.549,0,0,1-.141-.878,2.41,2.41,0,0,1,.149-.871,2.023,2.023,0,0,1,.387-.648,2.341,2.341,0,0,1,.625-.469,4.5,4.5,0,0,1,.767-.342q.38-.134.908-.268l1.265-.32a1.758,1.758,0,0,0,.618-.246.444.444,0,0,0,.179-.365.509.509,0,0,0-.186-.409.906.906,0,0,0-.409-.2,2.508,2.508,0,0,0-.491-.045,1.539,1.539,0,0,0-.915.246,1.246,1.246,0,0,0-.439.826l-2.389-.394a2.824,2.824,0,0,1,1.228-1.89,5.052,5.052,0,0,1,2.687-.6q.372,0,.692.03a4.6,4.6,0,0,1,.685.1,2.973,2.973,0,0,1,.662.208,2.406,2.406,0,0,1,.573.35,2.036,2.036,0,0,1,.469.521,2.6,2.6,0,0,1,.3.729,3.869,3.869,0,0,1,.112.968Zm-4.116.365a1.73,1.73,0,0,0,1.69-1.8l-1.779.6a1.835,1.835,0,0,0-.514.246.419.419,0,0,0-.179.365.517.517,0,0,0,.223.439A.949.949,0,0,0,45.961,21.8Z" transform="translate(-8.589 -3.104)"/>
  <path id="Path_28" data-name="Path 28" d="M16.792,31.306a3.934,3.934,0,0,1,1.488.283,3.674,3.674,0,0,1,1.228.789,3.518,3.518,0,0,1,.834,1.3,5.165,5.165,0,0,1,0,3.5,3.6,3.6,0,0,1-.834,1.3,3.77,3.77,0,0,1-1.228.8,4.026,4.026,0,0,1-1.488.275,3.765,3.765,0,0,1-1.28-.208,2.124,2.124,0,0,1-.915-.618v4.376H11.88V31.454h2.56l.06.8a1.916,1.916,0,0,1,.923-.7A3.639,3.639,0,0,1,16.792,31.306Zm-.64,6.006a1.71,1.71,0,0,0,1.273-.506,2.146,2.146,0,0,0,0-2.769,1.71,1.71,0,0,0-1.273-.506,1.744,1.744,0,0,0-1.288.506,2.171,2.171,0,0,0,0,2.769A1.745,1.745,0,0,0,16.152,37.312Z" transform="translate(-2.395 -6.311)"/>
  <path id="Path_29" data-name="Path 29" d="M27.129,32.653a2.7,2.7,0,0,1,1.064-.886,3.3,3.3,0,0,1,1.555-.387v2.374a5.925,5.925,0,0,0-1.131.089,1.861,1.861,0,0,0-.752.305,1.217,1.217,0,0,0-.447.61,3.008,3.008,0,0,0-.134.982v3.61H24.539V31.469h2.59Z" transform="translate(-4.947 -6.326)"/>
  <path id="Path_30" data-name="Path 30" d="M36.149,39.485A4.807,4.807,0,0,1,32.866,38.4a3.784,3.784,0,0,1-1.243-3.007,4.117,4.117,0,0,1,.573-2.2,3.638,3.638,0,0,1,1.585-1.407,5.537,5.537,0,0,1,2.367-.476,4.841,4.841,0,0,1,3.3,1.087,3.762,3.762,0,0,1,1.243,3,3.774,3.774,0,0,1-1.25,3.007A4.83,4.83,0,0,1,36.149,39.485Zm-.03-2.114a1.781,1.781,0,0,0,1.369-.543,2.292,2.292,0,0,0,0-2.873,1.769,1.769,0,0,0-1.369-.551,1.66,1.66,0,0,0-1.3.551,2.346,2.346,0,0,0,0,2.873A1.671,1.671,0,0,0,36.119,37.371Z" transform="translate(-6.375 -6.311)"/>
  <path id="Path_31" data-name="Path 31" d="M47.591,38.746a2.565,2.565,0,0,1-1.92-.685A2.71,2.71,0,0,1,45,36.1v-3.17H43.49V30.864h.447a1.4,1.4,0,0,0,1.042-.357,1.861,1.861,0,0,0,.357-1.317v-.811h2.426v2.486h1.5v2.062h-1.5v2.865a1.079,1.079,0,0,0,.193.714.8.8,0,0,0,.61.216h.7v2.024Z" transform="translate(-8.767 -5.721)"/>
  <path id="Path_32" data-name="Path 32" d="M53.991,29.8a1.453,1.453,0,0,1-1.057-.432,1.416,1.416,0,0,1-.439-1.049,1.375,1.375,0,0,1,.439-1.027,1.453,1.453,0,0,1,1.057-.432,1.4,1.4,0,0,1,1.027.432,1.387,1.387,0,0,1,.432,1.027,1.429,1.429,0,0,1-.432,1.049A1.4,1.4,0,0,1,53.991,29.8ZM52.607,38.44V30.558h2.731V38.44Z" transform="translate(-10.582 -5.414)"/>
  <path id="Path_33" data-name="Path 33" d="M15.466,55.394a4.5,4.5,0,0,1-3.185-1.131,4.2,4.2,0,0,1,0-5.917,4.5,4.5,0,0,1,3.185-1.131,4.391,4.391,0,0,1,2.709.8,3.357,3.357,0,0,1,1.317,2.27l-2.5.231a1.4,1.4,0,0,0-1.555-1.206,1.479,1.479,0,0,0-1.213.551,2.534,2.534,0,0,0,0,2.873,1.487,1.487,0,0,0,1.213.543,1.4,1.4,0,0,0,1.555-1.206l2.5.231a3.386,3.386,0,0,1-1.332,2.277A4.4,4.4,0,0,1,15.466,55.394Z" transform="translate(-2.23 -9.518)"/>
  <path id="Path_34" data-name="Path 34" d="M26.957,55.394a4.807,4.807,0,0,1-3.282-1.087A3.784,3.784,0,0,1,22.432,51.3a4.117,4.117,0,0,1,.573-2.2,3.637,3.637,0,0,1,1.585-1.407,5.536,5.536,0,0,1,2.367-.476,4.841,4.841,0,0,1,3.3,1.087,4.24,4.24,0,0,1-.008,6.006A4.83,4.83,0,0,1,26.957,55.394Zm-.03-2.114a1.781,1.781,0,0,0,1.369-.543,2.291,2.291,0,0,0,0-2.873,1.768,1.768,0,0,0-1.369-.551,1.66,1.66,0,0,0-1.3.551,2.346,2.346,0,0,0,0,2.873A1.671,1.671,0,0,0,26.928,53.28Z" transform="translate(-4.522 -9.518)"/>
  <path id="Path_35" data-name="Path 35" d="M40.04,47.4h2.865l-3.446,7.882H37.077L33.684,47.4h2.851l1.741,4.845Z" transform="translate(-6.79 -9.556)"/>
  <path id="Path_36" data-name="Path 36" d="M47.652,45.708a1.453,1.453,0,0,1-1.057-.432,1.416,1.416,0,0,1-.439-1.049A1.375,1.375,0,0,1,46.6,43.2a1.453,1.453,0,0,1,1.057-.432,1.4,1.4,0,0,1,1.027.432,1.387,1.387,0,0,1,.432,1.027,1.428,1.428,0,0,1-.432,1.049A1.4,1.4,0,0,1,47.652,45.708Zm-1.384,8.641V46.467H49v7.882Z" transform="translate(-9.305 -8.622)"/>
  <path id="Path_37" data-name="Path 37" d="M57.455,42.955h2.717V54.386h-2.56l-.06-.752a1.956,1.956,0,0,1-.93.707,3.618,3.618,0,0,1-1.362.246,4.027,4.027,0,0,1-1.488-.275,3.771,3.771,0,0,1-1.228-.8,3.6,3.6,0,0,1-.834-1.3,5.165,5.165,0,0,1,0-3.5,3.517,3.517,0,0,1,.834-1.3,3.673,3.673,0,0,1,1.228-.789,3.934,3.934,0,0,1,1.488-.283,3.765,3.765,0,0,1,1.28.208,2.069,2.069,0,0,1,.915.61Zm-2.836,8.9a1.872,1.872,0,0,0,2.56,0,2.146,2.146,0,0,0,0-2.769,1.872,1.872,0,0,0-2.56,0,2.171,2.171,0,0,0,0,2.769Z" transform="translate(-10.363 -8.659)"/>
</svg>
