<svg xmlns="http://www.w3.org/2000/svg" width="64" height="64" viewBox="0 0 64 64"><g><g opacity="-1"><g><g opacity="-1"><path fill="#ff0d58" d="M63.575 17.43v28.716c0 9.626-7.803 17.429-17.429 17.429H17.43C7.803 63.575 0 55.772 0 46.146V17.43C0 7.803 7.803 0 17.429 0h28.717c9.626 0 17.429 7.803 17.429 17.43z"/></g></g><g><g opacity="-1"><g><g opacity="-1"><path fill="#e00051" d="M11.92 44.756l18.82 18.82h32.835V33.691l-11.92-11.87L11.92 44.756"/></g></g></g><g opacity="-1"/></g><g><g opacity="-1"/></g><g><g opacity="-1"><path fill="#b6fff6" d="M31.787 14.138c-9.497 0-17.704 4.826-17.785 4.875v12.782l-.001 5.76v7.023c.081.048 8.236 4.828 17.65 4.874l.136.631 17.786-5.505V19.013c-.081-.048-8.314-4.875-17.786-4.875z"/></g><g opacity="-1"><path fill="#97f4ec" d="M49.894 19.013v7.022l-20.809-2.437 2.522-9.46c9.738 0 18.202 4.827 18.287 4.875z"/></g><g opacity="-1"><path fill="#b6fff6" d="M49.893 37.557v7.02l-18.286 5.506-2.522-11.351s20.68-1.14 20.808-1.175z"/></g><g opacity="-1"><path fill="#97f4ec" d="M29.085 30.534l2.522 9.46c9.732 0 18.158-2.4 18.286-2.437v-5.761c-.084 0-20.808-1.262-20.808-1.262z"/></g><g opacity="-1"><path fill="#b6fff6" d="M49.894 26.036v5.76H29.085l2.522-8.198c9.745 0 18.202 2.412 18.287 2.438z"/></g><g opacity="-1"><path fill="#dafffb" d="M31.985 39.993v9.46c-9.738 0-18.202-4.827-18.287-4.875v-7.023z"/></g><g opacity="-1"><path fill="#b6fff6" d="M31.985 14.138v9.46L13.7 26.034v-7.021c.083-.05 8.52-4.875 18.285-4.875z"/></g><g opacity="-1"><path fill="#dafffb" d="M31.985 23.598v8.198l-9.143 2.522-9.142-2.522v-5.762c.127-.036 8.553-2.436 18.285-2.436z"/></g><g opacity="-1"><path fill="#b6fff6" d="M13.7 31.795c-.002 0-.002 5.76-.002 5.76.085.025 8.542 2.438 18.287 2.438v-8.198H13.699z"/></g><g opacity="-1"><path fill="#fff" d="M49.171 43.655c-2.1 1.105-9.278 4.537-17.384 4.537-8.084 0-15.279-3.433-17.383-4.538V19.936c2.1-1.104 9.278-4.537 17.383-4.537 8.086 0 15.28 3.434 17.384 4.538zm2.544-1.745l-.06.03V21.672l.06.029c2.462 1.223 7.147 3.497 11.86 3.832v-2.9c-4.158-.296-8.318-2.403-10.607-3.538a33.65 33.65 0 0 0-1.314-.631v-.007l-.618-.365c-.362-.213-8.975-5.215-19.249-5.215-10.273 0-18.886 5.002-19.248 5.215l-.619.365v.007c-.357.156-.781.367-1.313.63C8.318 20.23 4.157 22.345 0 22.64v2.893c4.712-.335 9.397-2.61 11.86-3.832l.06-.03V41.94l-.06-.03C9.397 40.688 4.712 38.413 0 38.078v2.894c4.158.295 8.318 2.41 10.606 3.545.576.285 1.027.509 1.401.669l.531.313c.363.213 8.976 5.215 19.25 5.215 10.273 0 18.886-5.002 19.248-5.215l.531-.313c.375-.16.826-.383 1.401-.67 2.289-1.135 6.45-3.249 10.607-3.544v-2.894c-4.712.335-9.397 2.61-11.86 3.832z"/></g></g></g></g></svg>